<?xml version="1.0" encoding="utf-8"?>
<!-- Generator: Adobe Illustrator 22.0.0, SVG Export Plug-In . SVG Version: 6.00 Build 0)  -->
<svg version="1.1" id="Capa_1" xmlns="http://www.w3.org/2000/svg" xmlns:xlink="http://www.w3.org/1999/xlink" x="0px" y="0px"
	 viewBox="0 0 595.3 144.6" style="enable-background:new 0 0 595.3 144.6;" xml:space="preserve">
<style type="text/css">
	.st0{fill-rule:evenodd;clip-rule:evenodd;fill:#003C71;}
	.st1{fill-rule:evenodd;clip-rule:evenodd;fill:#C95A34;}
	.st2{fill-rule:evenodd;clip-rule:evenodd;fill:#117AB0;}
</style>
<path class="st0" d="M58.4,7.1c1,0,1.9-0.8,1.9-1.9c0-1-0.8-1.9-1.9-1.9c-1,0-1.9,0.8-1.9,1.9C56.6,6.2,57.4,7.1,58.4,7.1z"/>
<path class="st0" d="M42.8,6.2C43,6.8,43.4,7.2,44,7.4c0,0,0,0,0,0c1,0.4,2,0.1,3,0.4c1,0.2,1.7,1,1.5,2.1c-0.1,0.4-0.3,0.8-0.7,1.1
	c-0.4,0.4-1,0.9-1.5,0.9c-0.2,0-0.4,0-0.6,0.1c-0.2,0.1-0.2,0.3-0.2,0.5c0,0.2,0.1,0.4,0.2,0.5c0.2,0.2,0.3,0.5,0.6,0.6
	c0.3,0.1,0.7,0,1-0.1c0.2-0.1,0.5-0.3,0.7-0.5c0.2-0.2,0.4-0.3,0.6-0.5c0.3-0.3,0.5-0.6,0.7-0.9c0.3-0.5,0.6-1,0.7-1.5
	c0.2-1-0.2-2.2-0.9-2.9c-0.2-0.2-0.4-0.3-0.7-0.5C47.9,6.1,47.3,6,46.7,6c-0.4,0-0.9,0-1.3,0c-0.2,0-0.4-0.1-0.7-0.1
	c-0.1,0-0.3-0.1-0.4-0.2c-0.5-0.3-0.4-1.1-0.2-1.6c0.1-0.2,0.4-0.5,0.6-0.6c0.2-0.1,0.5-0.4,0.7-0.4c0.2,0,0.4,0.2,0.7,0.1
	c0.2,0,0.3-0.2,0.3-0.3c0.1-0.1,0.1-0.3,0.1-0.5c0-0.3-0.2-0.7-0.5-0.9c-0.6-0.4-1.6,0.3-2.1,0.7c-0.3,0.2-0.8,0.8-1,1.1
	C42.4,4.2,42.3,5.3,42.8,6.2z"/>
<path class="st0" d="M74.2,17.2c0.1,0,0.1,0.1,0.2,0.1c0.2,0.1,0.4,0.2,0.6,0.3c0.3,0.2,0.6,0.3,0.9,0.1c0.1-0.1,0.2-0.2,0.2-0.3
	c1.3-2.5,3.3-4.5,5.2-6.6c0.8,0.7,1.6,1.4,2.4,2.1c0.1,0.1,0.3,0.2,0.4,0.2c0.1,0,0.3-0.1,0.4-0.1c0.2-0.2,0.5-0.4,0.5-0.6
	c0.1-0.3-0.3-0.6-0.6-0.8c-1.9-1.4-3.7-2.8-5.5-4.4c-0.2-0.2-0.4-0.3-0.6-0.3c-0.3,0-0.5,0.2-0.7,0.4c-0.1,0.1-0.2,0.2-0.3,0.3
	c-0.1,0.3,0,0.6,0.2,0.8c0.2,0.2,0.5,0.3,0.7,0.4c0.5,0.2,0.9,0.5,1.3,0.9c0.1,0.1-2.8,3.7-3.1,4c-0.6,0.7-1.1,1.3-1.7,1.9
	C74.6,16.1,73.7,16.7,74.2,17.2z"/>
<path class="st0" d="M66.1,11.7c0.1,0,0.1,0.1,0.2,0.1c0.9,0.4,1.9,0.6,2.8,0.6c1-0.1,1.9-0.4,2.6-1.1c0.7-0.7,1.1-1.7,0.9-2.7
	c-0.2-1.1-1-1.9-1.5-2.8C71,5.4,70.8,4.8,71,4.4c0.2-0.5,0.9-0.7,1.5-0.7c0.5,0,1,0.2,1.2,0.6c0.1,0.2,0.2,0.4,0.4,0.5
	c0.2,0.1,0.6,0,0.8-0.2c0.3-0.3,0.5-0.6,0.4-1c-0.1-0.4-0.6-0.7-1-0.8c-0.6-0.2-1.2-0.4-1.9-0.5c-0.6-0.1-1.3,0-1.9,0.3
	c-1.1,0.6-1.6,2-1.3,3.1c0.2,0.6,0.7,1.2,1,1.7c0.4,0.6,0.7,1.2,0.6,1.9c-0.1,0.5-0.4,1.1-1,1.3c-0.7,0.3-1.6,0.1-2.3-0.1
	c-0.2-0.1-0.4-0.1-0.5-0.3C67,10.2,67,9.9,66.8,9.8C66.6,9.6,66.2,9.8,66,10c-0.3,0.4-0.5,1.1-0.2,1.5C65.9,11.6,66,11.6,66.1,11.7z
	"/>
<path class="st0" d="M548.5,87.4c-6.9-0.2-12.2-2.7-15.8-7.5c-3.5-4.6-5.3-10.7-5.3-18.4c0-7.6,2.2-13.7,6.5-18.3
	c4.3-4.6,9.7-6.8,16-6.8c7.1,0,12.6,2.4,16.4,7.2c1.7,2.2,3.1,4.7,4,7.6H583c-1.2-5.9-3.5-11-7.1-15c-5.9-6.7-14.3-10.1-25.2-10.1
	c-9.7,0-18,3.2-24.7,9.7c-7.1,6.9-10.6,15.8-10.6,26.7c0,11.6,3.1,20.6,9.4,26.7c5.7,5.6,13.5,8.5,23.5,8.5c0.1,0,0.2,0,0.3,0V87.4z
	"/>
<path class="st1" d="M505.7,70.8c-6.1-5.2-14.5-7.8-25.3-7.8v0H469v10.2h7.2c8.1,0,14.4,1.8,19,5.5c4.3,3.5,6.4,8.1,6.4,13.8
	c0,5.7-2.1,10.3-6.2,13.8c-4.4,3.8-10.6,5.6-18.5,5.6c-3.2,0-6.4-0.3-9.5-0.9l-1.1,11c3.1,0.5,6.3,0.8,9.6,0.8
	c11.2,0,20.4-3,27.6-9.1c7.2-6.1,10.9-13.8,10.9-23.1C514.4,82.4,511.5,75.8,505.7,70.8z"/>
<polygon class="st2" points="480.4,39.2 505.7,39.2 511.7,27.4 469,27.4 469,39.2 "/>
<path class="st0" d="M557,73.4C557.1,73.4,557.1,73.3,557,73.4l-1.3-3.8c-0.1-0.2-0.2-0.2-0.2,0l-1.3,3.7c0,0.1,0,0.1,0,0.1H557z
	 M555.5,67.7c0.2-0.5,0.2-0.5,0.3-0.5c0.1,0,0.2,0.2,0.3,0.5c0.3,0.6,2.5,6.2,3.4,8.2c0.5,1.2,0.9,1.4,1.2,1.5
	c0.2,0.1,0.4,0.1,0.5,0.1c0.1,0,0.2,0,0.2,0.1c0,0.1-0.2,0.1-0.3,0.1c-0.2,0-1.2,0-2.2,0c-0.3,0-0.5,0-0.5-0.1c0-0.1,0-0.1,0.1-0.1
	c0.1,0,0.2-0.1,0.1-0.4l-1.2-3.1c0-0.1,0-0.1-0.1-0.1H554c-0.1,0-0.1,0-0.1,0.1l-0.8,2.2c-0.1,0.3-0.2,0.7-0.2,0.9
	c0,0.3,0.2,0.4,0.5,0.4h0.1c0.1,0,0.1,0,0.1,0.1c0,0.1-0.1,0.1-0.2,0.1c-0.3,0-1.1,0-1.3,0c-0.1,0-0.8,0-1.4,0c-0.2,0-0.3,0-0.3-0.1
	c0-0.1,0.1-0.1,0.1-0.1c0.1,0,0.3,0,0.4,0c0.6-0.1,0.9-0.6,1.2-1.2L555.5,67.7z"/>
<path class="st0" d="M567.3,65.8c-0.3-0.1-0.6-0.4-1.1-0.4c-0.6,0-0.9,0.5-1,0.6c-0.1,0.1-0.2,0.1-0.2,0.1c-0.1,0-0.1,0-0.1-0.1
	c0-0.1,0-0.2,0.1-0.2c0.2-0.4,0.9-1.1,1.4-1.1c0.4,0,0.8,0.2,1.3,0.5c0.2,0.1,0.7,0.3,0.9,0.3c0.6,0,0.9-0.4,1-0.5
	c0.1-0.1,0.1-0.2,0.2-0.2c0.1,0,0.1,0,0.1,0.1c0,0.1,0,0.1-0.1,0.2c-0.1,0.2-0.8,1.1-1.3,1.1C568,66.3,567.5,66,567.3,65.8z
	 M563.9,75.8c0,1.1,0.2,1.4,0.5,1.5c0.3,0.1,0.6,0.1,0.7,0.1c0.1,0,0.1,0,0.1,0.1c0,0.1-0.1,0.1-0.2,0.1c-0.8,0-1.4,0-1.5,0
	c-0.1,0-0.7,0-1.4,0c-0.1,0-0.2,0-0.2-0.1c0-0.1,0.1-0.1,0.1-0.1c0.1,0,0.4,0,0.6-0.1c0.3-0.1,0.4-0.5,0.4-1.7V68
	c0-0.5,0.1-0.7,0.2-0.7c0.2,0,0.4,0.3,0.5,0.4c0.2,0.2,2.3,2.4,4.4,4.6c1.4,1.4,2.9,3,3.3,3.5l-0.1-6.8c0-0.9-0.1-1.2-0.5-1.3
	c-0.2,0-0.6-0.1-0.7-0.1c-0.1,0-0.1-0.1-0.1-0.1c0-0.1,0.1-0.1,0.3-0.1c0.6,0,1.3,0,1.5,0c0.2,0,0.6,0,1.2,0c0.1,0,0.3,0,0.3,0.1
	c0,0-0.1,0.1-0.2,0.1c-0.1,0-0.2,0-0.3,0c-0.5,0.1-0.5,0.4-0.5,1.2l0,7.9c0,0.9,0,1-0.1,1c-0.1,0-0.3-0.1-1.1-0.8
	c-0.1-0.1-2.2-2.1-3.6-3.7c-1.6-1.7-3.2-3.4-3.6-3.8L563.9,75.8z"/>
<path class="st0" d="M580.6,77.3c1.3,0,3.8-0.7,3.8-4.6c0-3.2-2-4.9-4.2-4.9c-2.3,0-4,1.5-4,4.4C576.2,75.3,578.1,77.3,580.6,77.3z
	 M580.3,67.3c3.2,0,5.5,1.9,5.5,5.1c0,3-2.2,5.5-5.6,5.5c-3.8,0-5.5-2.9-5.5-5.3C574.7,70.4,576.4,67.3,580.3,67.3z"/>
<path class="st0" d="M588,77.5c-0.2-0.1-0.2-0.1-0.2-0.5c0-0.7,0.1-1.2,0.1-1.4c0-0.1,0-0.2,0.1-0.2c0.1,0,0.1,0,0.1,0.2
	c0,0.1,0,0.3,0,0.5c0.2,1,1.3,1.3,2.2,1.3c1.4,0,2.1-0.8,2.1-1.8c0-1-0.5-1.4-1.8-2.4l-0.6-0.5c-1.5-1.1-2-1.9-2-2.9
	c0-1.6,1.2-2.5,3.1-2.5c0.5,0,1.1,0.1,1.4,0.2c0.3,0.1,0.4,0.1,0.5,0.1c0.1,0,0.1,0,0.1,0.1s-0.1,0.5-0.1,1.4c0,0.2,0,0.3-0.1,0.3
	c-0.1,0-0.1-0.1-0.1-0.2c0-0.2-0.1-0.5-0.2-0.7c-0.1-0.2-0.6-0.7-1.8-0.7c-1,0-1.9,0.5-1.9,1.5c0,0.9,0.4,1.4,1.8,2.3l0.4,0.3
	c1.7,1.2,2.3,2.1,2.3,3.3c0,0.8-0.3,1.7-1.3,2.3c-0.6,0.4-1.5,0.5-2.2,0.5C589.4,77.9,588.6,77.8,588,77.5z"/>
<rect x="434.2" y="4.7" class="st0" width="1" height="135.6"/>
<g>
	<path class="st0" d="M173.8,57.7c-0.1,0-0.2,0-0.4,0c-0.2,0-0.4,0-0.6,0c-0.2,0-0.4-0.1-0.6-0.1c-0.3-0.1-0.5-0.2-0.7-0.5
		c-0.2-0.2-0.3-0.6-0.4-1.2c-0.1-0.5-0.1-1.2-0.2-2.1l-0.4-15.5c0.3,0.3,0.7,0.8,1.2,1.4c0.5,0.6,1.2,1.3,2,2.2
		c0.8,0.8,1.6,1.7,2.5,2.7c0.9,1,1.8,2,2.7,3c0.7,0.7,1.4,1.5,2.2,2.3c0.7,0.8,1.5,1.6,2.2,2.3c0.7,0.7,1.4,1.4,2,2
		c0.6,0.6,1.1,1.1,1.5,1.5c0.4,0.4,0.6,0.6,0.7,0.7c0.6,0.6,1,1,1.3,1.3c0.3,0.3,0.6,0.5,0.7,0.6c0.2,0.1,0.3,0.2,0.3,0.2
		c0.1,0,0.1,0,0.1-0.1c0,0,0.1-0.1,0.1-0.3c0-0.1,0-0.4,0-0.7c0-0.3,0-0.7,0-1.3l0.1-19c0-0.6,0-1.2,0.1-1.6
		c0.1-0.4,0.2-0.7,0.3-0.9c0.2-0.2,0.4-0.4,0.8-0.4c0.2-0.1,0.4-0.1,0.5-0.1c0.1,0,0.2,0,0.3,0c0.1,0,0.2,0,0.3-0.1
		c0.1,0,0.1-0.1,0.1-0.2c0-0.1,0-0.2-0.2-0.2c-0.1,0-0.3,0-0.4,0c-0.4,0-0.8,0-1.2,0c-0.4,0-0.7,0-1,0c-0.3,0-0.5,0-0.6,0
		c-0.1,0-0.4,0-0.7,0c-0.3,0-0.7,0-1.2,0c-0.5,0-1,0-1.4,0c-0.2,0-0.4,0-0.5,0c-0.1,0-0.2,0.1-0.2,0.2c0,0.1,0,0.1,0,0.2
		c0,0,0.1,0.1,0.2,0.1c0.1,0,0.2,0,0.4,0c0.2,0,0.4,0,0.6,0c0.2,0,0.4,0.1,0.6,0.1c0.3,0.1,0.6,0.2,0.8,0.4c0.2,0.2,0.3,0.5,0.4,1
		c0.1,0.4,0.1,1,0.1,1.7l0.3,16.5c-0.3-0.3-0.7-0.7-1.2-1.3c-0.5-0.6-1.2-1.3-1.9-2.1c-0.7-0.8-1.5-1.6-2.3-2.5
		c-0.8-0.9-1.6-1.7-2.4-2.6c-1-1.1-2-2.1-2.9-3.2c-1-1-1.9-2-2.7-2.9c-0.8-0.9-1.6-1.7-2.3-2.4c-0.7-0.7-1.2-1.3-1.6-1.8
		c-0.4-0.5-0.7-0.7-0.8-0.9c-0.1-0.1-0.3-0.2-0.4-0.4c-0.2-0.2-0.3-0.3-0.4-0.4c-0.1-0.1-0.2-0.2-0.3-0.2c-0.1,0-0.2,0-0.2,0.1
		c-0.1,0.1-0.1,0.3-0.1,0.5c0,0.2,0,0.6,0,1l0,18.6c0,1,0,1.7-0.1,2.3c-0.1,0.6-0.2,1-0.3,1.3c-0.1,0.3-0.3,0.5-0.6,0.5
		c-0.3,0.1-0.5,0.1-0.8,0.2c-0.2,0-0.4,0-0.6,0c-0.1,0-0.1,0-0.2,0c0,0-0.1,0.1-0.1,0.1c0,0.1,0,0.2,0.1,0.2c0.1,0,0.2,0,0.4,0
		c0.5,0,1,0,1.4,0c0.4,0,0.8,0,1.1,0c0.3,0,0.5,0,0.6,0c0.1,0,0.3,0,0.6,0c0.3,0,0.7,0,1.2,0c0.5,0,1,0,1.6,0c0.2,0,0.3,0,0.4-0.1
		c0.1,0,0.1-0.1,0.1-0.2c0-0.1,0-0.1-0.1-0.1C173.9,57.7,173.9,57.7,173.8,57.7z"/>
	<path class="st0" d="M206.3,57.7c-0.1,0-0.2,0-0.4,0c-0.2,0-0.3,0-0.5,0c-0.2,0-0.4,0-0.5-0.1c-0.3,0-0.6-0.2-0.7-0.3
		c-0.2-0.2-0.3-0.4-0.4-0.6c-0.1-0.2-0.1-0.5-0.2-0.8c0-0.5-0.1-1-0.1-1.7c0-0.7,0-1.5,0-2.4c0-0.9,0-1.9,0-2.9V43c0-1,0-1.9,0-2.6
		c0-0.7,0-1.3,0-1.8c0-0.5,0-0.9,0-1.2c0-0.3,0-0.6,0-0.8c0-0.2,0-0.4,0-0.6c0-0.6,0.1-1,0.3-1.3c0.2-0.3,0.5-0.5,0.9-0.5
		c0.2,0,0.3-0.1,0.5-0.1c0.1,0,0.2,0,0.3,0c0.1,0,0.1,0,0.2,0c0,0,0.1-0.1,0.1-0.1c0-0.1,0-0.2-0.1-0.2c-0.1,0-0.2-0.1-0.4-0.1
		c-0.2,0-0.5,0-0.9,0c-0.3,0-0.7,0-1,0c-0.3,0-0.6,0-0.9,0c-0.2,0-0.4,0-0.4,0c0,0-0.2,0-0.4,0c-0.2,0-0.5,0-0.9,0c-0.3,0-0.7,0-1,0
		c-0.3,0-0.7,0-0.9,0c-0.2,0-0.3,0-0.4,0.1c-0.1,0-0.1,0.1-0.1,0.2c0,0.1,0,0.1,0.1,0.1c0.1,0,0.1,0,0.2,0c0.1,0,0.3,0,0.5,0
		c0.2,0,0.4,0,0.5,0.1c0.4,0.1,0.6,0.3,0.8,0.6c0.2,0.3,0.3,0.7,0.3,1.3c0,0.2,0,0.4,0,0.6c0,0.2,0,0.5,0,0.8c0,0.3,0,0.7,0,1.2
		c0,0.5,0,1.1,0,1.8c0,0.7,0,1.6,0,2.6v5.7c0,1,0,2,0,2.9c0,0.9,0,1.7,0,2.4c0,0.7-0.1,1.3-0.1,1.7c0,0.3-0.1,0.6-0.2,0.8
		c-0.1,0.2-0.2,0.5-0.3,0.6c-0.1,0.2-0.3,0.3-0.5,0.3c-0.1,0-0.3,0.1-0.5,0.1c-0.2,0-0.3,0-0.5,0c-0.1,0-0.2,0-0.2,0
		c0,0-0.1,0.1-0.1,0.1c0,0.1,0,0.2,0.1,0.2c0.1,0,0.2,0.1,0.4,0.1c0.3,0,0.5,0,0.9,0c0.3,0,0.7,0,1,0c0.3,0,0.6,0,0.9,0
		c0.2,0,0.4,0,0.4,0c0.1,0,0.2,0,0.4,0c0.2,0,0.6,0,1,0c0.4,0,0.8,0,1.2,0c0.5,0,0.9,0,1.3,0c0.2,0,0.3,0,0.4-0.1
		c0.1,0,0.1-0.1,0.1-0.2c0,0,0-0.1-0.1-0.1C206.5,57.7,206.4,57.7,206.3,57.7z"/>
	<path class="st0" d="M134.6,30.3c0.1,0,0.2,0,0.4,0c0.2,0,0.3,0,0.5,0c0.2,0,0.3,0,0.4,0.1c0.4,0.1,0.7,0.2,1,0.4
		c0.2,0.2,0.4,0.4,0.5,0.7c0.1,0.3,0.2,0.6,0.2,1.1c0,0.2,0,0.5,0,0.7c0,0.3,0,0.6,0,1c0,0.4,0,0.8,0,1.4c0,0.5,0,1.2,0,2.1
		c0,0.8,0,1.8,0,3v5.5c0,1.4,0.1,2.6,0.3,3.6c0.2,1,0.4,2,0.7,2.7c0.3,0.8,0.6,1.5,1,2c0.4,0.6,0.8,1.1,1.3,1.5
		c0.7,0.6,1.4,1.1,2.2,1.5c0.8,0.4,1.5,0.6,2.2,0.8c0.7,0.2,1.4,0.3,2,0.3c0.6,0,1,0.1,1.4,0.1c0.7,0,1.5,0,2.4-0.2
		c0.8-0.1,1.7-0.4,2.6-0.8c0.9-0.4,1.8-1,2.7-1.8c0.7-0.7,1.4-1.4,1.8-2.3c0.5-0.9,0.8-1.8,1-2.8c0.2-1,0.4-2,0.5-3
		c0.1-1,0.1-2.1,0.1-3.1v-4c0-1.2,0-2.2,0-3c0-0.8,0-1.5,0-2.1c0-0.6,0-1,0-1.4c0-0.4,0-0.7,0-1c0-0.3,0-0.5,0-0.7
		c0-0.7,0.1-1.1,0.3-1.5c0.2-0.3,0.5-0.6,1-0.7c0.2,0,0.4-0.1,0.5-0.1c0.1,0,0.3,0,0.4,0c0.1,0,0.1,0,0.2-0.1c0.1,0,0.1-0.1,0.1-0.2
		c0-0.1,0-0.2-0.1-0.2c-0.1,0-0.2-0.1-0.5-0.1c-0.3,0-0.6,0-0.9,0s-0.7,0-1,0c-0.3,0-0.6,0-0.8,0c-0.2,0-0.4,0-0.4,0
		c-0.1,0-0.2,0-0.5,0c-0.3,0-0.6,0-1,0c-0.4,0-0.8,0-1.2,0c-0.4,0-0.9,0-1.3,0c-0.2,0-0.4,0-0.5,0.1c-0.1,0-0.1,0.1-0.1,0.2
		c0,0.1,0,0.1,0.1,0.2c0.1,0,0.1,0.1,0.2,0.1c0.1,0,0.3,0,0.4,0c0.2,0,0.3,0,0.5,0c0.2,0,0.3,0,0.4,0.1c0.4,0.1,0.7,0.2,1,0.4
		c0.2,0.2,0.4,0.4,0.5,0.7c0.1,0.3,0.2,0.6,0.2,1.1c0,0.2,0,0.5,0,0.7c0,0.3,0,0.6,0,1c0,0.4,0,0.8,0,1.4c0,0.5,0,1.2,0,2.1
		c0,0.8,0,1.8,0,3v4.7c0,1.3-0.1,2.5-0.2,3.6c-0.1,1.1-0.3,2.2-0.7,3.1c-0.3,0.9-0.8,1.8-1.3,2.5c-0.5,0.5-1,1-1.6,1.4
		c-0.6,0.4-1.3,0.7-2,0.9c-0.7,0.2-1.5,0.3-2.2,0.3c-0.7,0-1.4,0-2-0.2c-0.6-0.1-1.3-0.3-1.8-0.6c-0.6-0.3-1.2-0.7-1.8-1.3
		c-0.4-0.4-0.8-0.8-1.1-1.3c-0.3-0.5-0.6-1.1-0.9-1.9c-0.2-0.7-0.5-1.6-0.6-2.6c-0.1-1-0.2-2.2-0.2-3.5v-5.3c0-1.2,0-2.2,0-3
		c0-0.8,0-1.5,0-2.1c0-0.6,0-1,0-1.4c0-0.4,0-0.7,0-1c0-0.3,0-0.5,0-0.7c0-0.7,0.1-1.2,0.3-1.5c0.2-0.3,0.5-0.6,1-0.6
		c0.2,0,0.4-0.1,0.5-0.1c0.1,0,0.3,0,0.4,0c0.1,0,0.1,0,0.2-0.1c0.1,0,0.1-0.1,0.1-0.2c0-0.1,0-0.2-0.1-0.2c-0.1,0-0.2-0.1-0.5-0.1
		c-0.3,0-0.6,0-1,0c-0.4,0-0.8,0-1.1,0c-0.4,0-0.7,0-1,0c-0.3,0-0.5,0-0.6,0c-0.1,0-0.3,0-0.6,0c-0.3,0-0.6,0-1.1,0
		c-0.4,0-0.9,0-1.3,0c-0.5,0-0.9,0-1.3,0c-0.2,0-0.4,0-0.5,0.1c-0.1,0-0.1,0.1-0.1,0.2c0,0.1,0,0.1,0.1,0.2
		C134.4,30.2,134.5,30.3,134.6,30.3z"/>
	<path class="st0" d="M236.5,34.1c0.1,0,0.2,0,0.4,0c0.1,0,0.3,0,0.4,0c0.1,0,0.2,0,0.3,0.1c0.3,0.1,0.6,0.2,0.8,0.3
		c0.2,0.1,0.3,0.3,0.4,0.6c0.1,0.2,0.1,0.6,0.2,0.9c0,0.2,0,0.4,0,0.6c0,0.2,0,0.5,0,0.8c0,0.3,0,0.7,0,1.2c0,0.5,0,1.1,0,1.8
		c0,0.7,0,1.6,0,2.6v5.7c0,1,0,2,0,2.9c0,0.9,0,1.7,0,2.4c0,0.7-0.1,1.3-0.1,1.7c0,0.3-0.1,0.6-0.2,0.8c-0.1,0.2-0.2,0.5-0.3,0.6
		c-0.1,0.2-0.3,0.3-0.5,0.3c-0.2,0-0.3,0.1-0.5,0.1c-0.2,0-0.3,0-0.5,0c-0.1,0-0.2,0-0.2,0c0,0-0.1,0.1-0.1,0.1c0,0.1,0,0.2,0.1,0.2
		c0.1,0,0.2,0.1,0.4,0.1c0.2,0,0.5,0,0.9,0c0.3,0,0.7,0,1,0c0.3,0,0.6,0,0.9,0c0.2,0,0.4,0,0.4,0c0.2,0,0.6,0,1,0
		c0.4,0,0.9,0,1.6,0.1c0.6,0,1.4,0,2.3,0.1c0.9,0,2,0,3.2,0c0.4,0,0.7,0,1,0c0.2,0,0.4-0.1,0.5-0.2c0.1-0.1,0.2-0.3,0.3-0.6
		c0-0.1,0.1-0.3,0.1-0.6c0-0.2,0.1-0.5,0.1-0.8c0-0.3,0.1-0.5,0.1-0.8c0-0.3,0-0.5,0.1-0.7c0-0.2,0-0.3,0-0.4c0-0.1,0-0.2,0-0.3
		c0-0.1-0.1-0.2-0.2-0.2c-0.1,0-0.1,0-0.2,0.1c0,0.1-0.1,0.2-0.1,0.4c-0.1,0.7-0.3,1.2-0.5,1.5c-0.2,0.4-0.5,0.6-1,0.8
		c-0.3,0.1-0.6,0.2-1,0.2c-0.4,0-0.7,0.1-1.1,0.1c-0.4,0-0.7,0-1,0c-0.8,0-1.4,0-1.9-0.1c-0.5-0.1-0.9-0.2-1.1-0.4
		c-0.3-0.2-0.4-0.5-0.5-0.8c-0.1-0.4-0.2-0.8-0.2-1.4c0-0.1,0-0.4,0-0.7c0-0.3,0-0.7,0-1.2c0-0.5,0-0.9,0-1.4c0-0.5,0-0.9,0-1.3
		c0-0.4,0-0.7,0-0.9v-2.9c0-0.1,0-0.1,0-0.2c0,0,0.1-0.1,0.2-0.1c0.1,0,0.3,0,0.6,0c0.3,0,0.6,0,1,0c0.4,0,0.8,0,1.2,0
		c0.4,0,0.8,0,1.1,0c0.3,0,0.6,0,0.8,0.1c0.4,0,0.7,0.1,1,0.2c0.2,0.1,0.4,0.3,0.5,0.4c0.1,0.2,0.2,0.3,0.2,0.5
		c0.1,0.2,0.1,0.4,0.1,0.6c0,0.2,0,0.3,0,0.5c0,0.1,0,0.1,0.1,0.2c0,0.1,0.1,0.1,0.2,0.1c0.1,0,0.1,0,0.2-0.1c0-0.1,0-0.1,0.1-0.2
		c0-0.1,0-0.2,0-0.3c0,0,0-0.2,0-0.3c0-0.2,0-0.3,0-0.6c0-0.2,0-0.4,0-0.6c0-0.2,0-0.4,0.1-0.6c0-0.5,0.1-0.9,0.2-1.2
		c0-0.3,0.1-0.5,0.1-0.6c0-0.1,0-0.2,0-0.2c0,0-0.1,0-0.1,0c-0.1,0-0.1,0-0.2,0.1c-0.1,0.1-0.2,0.2-0.3,0.3
		c-0.1,0.2-0.3,0.3-0.6,0.3c-0.2,0.1-0.5,0.1-0.9,0.1c-0.1,0-0.3,0-0.6,0c-0.3,0-0.6,0-1,0c-0.4,0-0.7,0-1.1,0c-0.4,0-0.8,0-1.1,0
		c-0.3,0-0.6,0-0.9,0c-0.3,0-0.4,0-0.5,0c-0.1,0-0.1,0-0.2-0.1c0,0,0-0.1,0-0.2v-8.9c0-0.1,0-0.2,0-0.3c0-0.1,0.1-0.1,0.1-0.1
		c0.1,0,0.3,0,0.5,0c0.3,0,0.6,0,1,0c0.4,0,0.8,0,1.2,0c0.4,0,0.8,0,1.1,0c0.3,0,0.5,0,0.6,0c0.6,0.1,1,0.1,1.3,0.2
		c0.3,0.1,0.5,0.2,0.7,0.4c0.1,0.2,0.2,0.3,0.3,0.5c0.1,0.1,0.1,0.3,0.1,0.4c0,0.1,0,0.3,0.1,0.4c0,0.1,0,0.2,0,0.3
		c0,0.1,0,0.2,0.1,0.3c0,0.1,0.1,0.1,0.2,0.1c0.1,0,0.1,0,0.1-0.1c0-0.1,0.1-0.2,0.1-0.2c0-0.1,0-0.3,0-0.5c0-0.2,0-0.4,0-0.6
		c0-0.2,0-0.4,0-0.6c0-0.2,0-0.3,0-0.4c0.1-0.5,0.1-0.8,0.2-1c0.1-0.2,0.1-0.4,0.1-0.5c0-0.1,0-0.2,0-0.2c0-0.1-0.1-0.1-0.1-0.1
		c-0.1,0-0.2,0-0.2,0.1c-0.1,0-0.1,0.1-0.2,0.1c-0.1,0-0.3,0.1-0.6,0.1c-0.2,0-0.5,0-0.8,0.1c-0.1,0-0.3,0-0.6,0c-0.3,0-0.7,0-1.1,0
		c-0.4,0-0.9,0-1.4,0c-0.5,0-1,0-1.5,0c-0.5,0-0.9,0-1.3,0s-0.7,0-1,0c-0.3,0-0.4,0-0.4,0l-1.3-0.1c-0.4,0-0.7,0-1.2,0
		c-0.4,0-0.8,0-1.2,0c-0.2,0-0.3,0-0.4,0.1c-0.1,0-0.1,0.1-0.1,0.2c0,0.1,0,0.1,0.1,0.1C236.4,34.1,236.4,34.1,236.5,34.1z"/>
	<path class="st0" d="M233.5,34.1c0.2,0,0.3,0,0.4,0c0.1,0,0.2,0,0.3,0c0.1,0,0.1-0.1,0.1-0.2c0-0.1,0-0.1-0.1-0.2
		c-0.1,0-0.2-0.1-0.4-0.1c-0.2,0-0.5,0-0.8,0c-0.3,0-0.5,0-0.8,0c-0.3,0-0.5,0-0.6,0c-0.2,0-0.3,0-0.3,0c-0.1,0-0.4,0-0.7,0
		c-0.3,0-0.7,0-1.2,0c-0.4,0-0.9,0-1.3,0c-0.2,0-0.4,0-0.5,0.1c-0.1,0-0.2,0.1-0.2,0.2c0,0.1,0,0.1,0.1,0.2c0.1,0,0.2,0,0.2,0
		c0.2,0,0.4,0,0.6,0c0.2,0,0.4,0,0.6,0.1c0.2,0.1,0.3,0.2,0.3,0.3c0.1,0.1,0.1,0.3,0.1,0.4c0,0.1,0,0.3-0.1,0.5
		c-0.1,0.2-0.1,0.5-0.2,0.7c-0.1,0.3-0.3,0.8-0.5,1.5c-0.2,0.7-0.5,1.4-0.8,2.3c-0.3,0.9-0.7,1.8-1.1,2.9c-0.4,1-0.8,2.1-1.2,3.1
		c-0.4,1.1-0.8,2.1-1.2,3.1c-0.4,1-0.8,2-1.1,2.8c-0.3,0.9-0.7,1.6-0.9,2.2l-6.2-16.6c-0.2-0.6-0.5-1.2-0.6-1.7
		c-0.2-0.5-0.2-0.8-0.2-1c0-0.1,0-0.2,0.1-0.3c0.1-0.1,0.2-0.2,0.4-0.3c0.1,0,0.2-0.1,0.4-0.1c0.1,0,0.3,0,0.4,0c0.2,0,0.3,0,0.4,0
		s0.2,0,0.3,0c0,0,0.1-0.1,0.1-0.2c0-0.1-0.1-0.1-0.2-0.2c-0.1,0-0.4-0.1-0.7-0.1c-0.4,0-0.8,0-1.3,0c-0.4,0-0.8,0-1.1,0
		c-0.3,0-0.5,0-0.7,0c-0.1,0-0.3,0-0.5,0c-0.3,0-0.6,0-0.9,0c-0.4,0-0.7,0-1.1,0c-0.4,0-0.8,0-1.2,0c-0.3,0-0.5,0-0.6,0
		c-0.1,0-0.2,0.1-0.2,0.2c0,0.1,0,0.1,0.1,0.2c0,0,0.1,0.1,0.2,0.1c0.1,0,0.3,0,0.5,0c0.2,0,0.5,0,0.7,0.1c0.4,0.1,0.7,0.2,1,0.4
		c0.3,0.2,0.5,0.4,0.7,0.7c0.2,0.3,0.4,0.8,0.7,1.4l8,19.9c0.2,0.5,0.4,0.9,0.5,1.2c0.1,0.3,0.2,0.5,0.3,0.6
		c0.1,0.1,0.2,0.2,0.3,0.2c0.1,0,0.2-0.1,0.3-0.2c0.1-0.2,0.2-0.4,0.4-0.8c0.2-0.4,0.4-0.9,0.7-1.5c0.2-0.5,0.6-1.3,1-2.2
		c0.4-0.9,0.9-2,1.4-3.3c0.5-1.3,1.1-2.7,1.8-4.3c0.4-1,0.8-2,1.2-2.9c0.4-0.9,0.7-1.8,1.1-2.6c0.3-0.8,0.6-1.5,0.8-2
		c0.2-0.6,0.4-1,0.5-1.2c0.3-0.7,0.5-1.3,0.7-1.7c0.2-0.4,0.4-0.7,0.6-0.9c0.2-0.2,0.3-0.3,0.4-0.4c0.2-0.1,0.4-0.2,0.6-0.3
		C233.1,34.2,233.3,34.1,233.5,34.1z"/>
	<path class="st0" d="M280.2,57.7c-0.1,0-0.3,0-0.5,0c-0.2,0-0.5,0-0.8-0.1c-0.3,0-0.6-0.1-1-0.3c-0.4-0.1-0.8-0.4-1.3-0.7
		c-0.5-0.3-1-0.8-1.6-1.4c-0.9-1-2-2.2-3.1-3.6c-1.1-1.4-2.3-3-3.7-4.7c1-0.9,1.7-1.8,2.3-2.6c0.6-0.8,1-1.7,1.2-2.5
		c0.3-0.8,0.4-1.6,0.4-2.4c0-0.6-0.1-1.1-0.2-1.6c-0.2-0.5-0.3-0.9-0.6-1.3c-0.2-0.4-0.5-0.7-0.7-1c-0.3-0.3-0.5-0.5-0.7-0.6
		c-0.6-0.4-1.2-0.7-1.9-0.9c-0.6-0.2-1.3-0.3-2-0.4c-0.7-0.1-1.4-0.1-2.1-0.1c-0.2,0-0.5,0-0.7,0c-0.3,0-0.6,0-0.9,0
		c-0.3,0-0.6,0-1,0c-0.3,0-0.5,0-0.8,0c-0.2,0-0.4,0-0.4,0c0,0-0.2,0-0.4,0c-0.2,0-0.5,0-0.9,0c-0.4,0-0.7,0-1.2,0
		c-0.4,0-0.8,0-1.2,0c-0.2,0-0.3,0-0.4,0.1c-0.1,0-0.1,0.1-0.1,0.2c0,0.1,0,0.1,0.1,0.1c0.1,0,0.1,0,0.2,0c0.1,0,0.2,0,0.4,0
		c0.1,0,0.3,0,0.4,0c0.1,0,0.2,0,0.3,0.1c0.3,0.1,0.6,0.2,0.8,0.3c0.2,0.1,0.3,0.3,0.4,0.6c0.1,0.3,0.1,0.6,0.2,0.9
		c0,0.2,0,0.4,0,0.6c0,0.2,0,0.5,0,0.8c0,0.3,0,0.7,0,1.2c0,0.5,0,1.1,0,1.8c0,0.7,0,1.6,0,2.6v5.7c0,1,0,2,0,2.9c0,0.9,0,1.7,0,2.4
		c0,0.7-0.1,1.3-0.1,1.7c0,0.3-0.1,0.6-0.2,0.8c-0.1,0.2-0.2,0.5-0.3,0.6c-0.1,0.2-0.3,0.3-0.5,0.3c-0.2,0-0.3,0.1-0.5,0.1
		c-0.2,0-0.3,0-0.5,0c-0.1,0-0.2,0-0.2,0c0,0-0.1,0.1-0.1,0.1c0,0.1,0,0.2,0.1,0.2c0.1,0,0.2,0.1,0.4,0.1c0.2,0,0.5,0,0.9,0
		c0.3,0,0.7,0,1,0c0.3,0,0.6,0,0.8,0c0.2,0,0.3,0,0.4,0c0,0,0.2,0,0.4,0c0.2,0,0.6,0,0.9,0c0.4,0,0.8,0,1.3,0c0.4,0,0.9,0,1.3,0
		c0.2,0,0.3,0,0.4-0.1c0.1,0,0.1-0.1,0.1-0.2c0,0,0-0.1-0.1-0.1c0,0-0.1,0-0.2,0c-0.1,0-0.2,0-0.4,0c-0.2,0-0.4,0-0.5,0
		c-0.2,0-0.4,0-0.5-0.1c-0.3,0-0.6-0.2-0.7-0.3c-0.2-0.2-0.3-0.4-0.4-0.6c-0.1-0.2-0.1-0.5-0.2-0.8c-0.1-0.5-0.1-1-0.1-1.7
		c0-0.7,0-1.5,0-2.4c0-0.9,0-1.9,0-2.9V48c0-0.1,0-0.1,0.1-0.2c0,0,0.1-0.1,0.2-0.1l4,0.1c0.1,0,0.2,0,0.2,0c0.1,0,0.1,0.1,0.2,0.1
		c0.2,0.2,0.4,0.5,0.6,0.9c0.3,0.4,0.5,0.7,0.9,1.2c0.3,0.4,0.7,0.9,1,1.4c0.3,0.5,0.7,0.9,1,1.4c0.6,0.8,1.2,1.5,1.6,2.2
		c0.5,0.6,1,1.2,1.4,1.6c0.4,0.4,0.9,0.8,1.3,1c0.3,0.2,0.6,0.3,0.9,0.4c0.3,0.1,0.7,0.2,1.1,0.2c0.4,0,0.9,0.1,1.5,0.1h2.3
		c0.3,0,0.5,0,0.6-0.1c0.1,0,0.2-0.1,0.2-0.2c0,0,0-0.1-0.1-0.1C280.4,57.7,280.3,57.7,280.2,57.7z M267.5,46.2
		c-0.4,0.2-0.8,0.4-1.2,0.5c-0.4,0.1-0.8,0.1-1.2,0.1c-0.5,0-1,0-1.4-0.1c-0.5,0-0.9-0.1-1.2-0.2c-0.4-0.1-0.6-0.2-0.8-0.3
		c-0.1,0-0.1-0.1-0.2-0.2c0-0.1-0.1-0.1-0.1-0.2V35.3c0-0.1,0-0.2,0.1-0.3c0-0.1,0.1-0.1,0.2-0.1c0.1,0,0.3-0.1,0.5-0.1
		c0.2,0,0.5,0,0.8-0.1c0.3,0,0.6,0,0.9,0c1.2,0,2.2,0.3,3,0.8c0.8,0.5,1.5,1.3,1.9,2.2c0.4,1,0.7,2.1,0.7,3.5c0,0.8-0.1,1.6-0.3,2.2
		c-0.2,0.7-0.4,1.2-0.7,1.7C268.2,45.5,267.9,45.9,267.5,46.2z"/>
	<path class="st0" d="M324.3,58.4c1.4,0,2.6-0.1,3.7-0.4c1.1-0.2,2-0.6,2.8-0.9c0.8-0.4,1.5-0.8,2-1.2c0.5-0.4,1-0.8,1.3-1.2
		c0.5-0.5,0.9-1,1.3-1.7c0.4-0.6,0.8-1.3,1.1-2.1c0.3-0.8,0.6-1.6,0.8-2.5c0.2-0.9,0.3-1.9,0.3-2.9c0-1.3-0.2-2.5-0.5-3.5
		c-0.3-1-0.7-2-1.2-2.7c-0.5-0.8-1-1.5-1.5-2c-0.8-0.8-1.6-1.4-2.5-1.9c-0.9-0.5-1.8-0.8-2.8-1.1c-1-0.2-1.9-0.4-2.8-0.5
		c-0.9-0.1-1.8-0.1-2.6-0.2c-0.8,0-1.6,0-2.2,0c-0.5,0-1,0-1.4,0c-0.5,0-0.9,0-1.3,0c-0.4,0-0.7,0-1,0c-0.3,0-0.5,0-0.6,0
		c0,0-0.2,0-0.4,0c-0.2,0-0.5,0-0.9,0c-0.4,0-0.7,0-1.2,0c-0.4,0-0.8,0-1.2,0c-0.2,0-0.3,0-0.4,0.1c-0.1,0-0.1,0.1-0.1,0.2
		c0,0.1,0,0.1,0.1,0.1c0.1,0,0.1,0,0.2,0c0.1,0,0.2,0,0.4,0c0.1,0,0.3,0,0.4,0c0.1,0,0.2,0,0.3,0.1c0.3,0.1,0.6,0.2,0.8,0.3
		c0.2,0.1,0.3,0.3,0.4,0.6c0.1,0.2,0.1,0.6,0.2,0.9c0,0.2,0,0.4,0,0.6c0,0.2,0,0.5,0,0.8c0,0.3,0,0.7,0,1.2c0,0.5,0,1.1,0,1.8
		c0,0.7,0,1.6,0,2.6v5.7c0,1,0,2,0,2.9c0,0.9,0,1.7,0,2.4c0,0.7-0.1,1.3-0.1,1.7c0,0.3-0.1,0.6-0.2,0.8c-0.1,0.2-0.2,0.5-0.3,0.6
		c-0.1,0.2-0.3,0.3-0.5,0.3c-0.2,0-0.3,0.1-0.5,0.1c-0.2,0-0.3,0-0.5,0c-0.1,0-0.2,0-0.2,0c0,0-0.1,0.1-0.1,0.1c0,0.1,0,0.2,0.1,0.2
		c0.1,0,0.2,0.1,0.4,0.1c0.2,0,0.5,0,0.9,0c0.3,0,0.7,0,1,0c0.3,0,0.6,0,0.9,0c0.2,0,0.4,0,0.4,0c0.1,0,0.2,0,0.5,0
		c0.2,0,0.5,0,0.9,0.1c0.4,0,0.8,0.1,1.3,0.1c0.5,0,1,0.1,1.5,0.1c0.5,0,1,0,1.5,0.1C323.3,58.4,323.8,58.4,324.3,58.4z M320.3,56.9
		c-0.4-0.1-0.7-0.3-1-0.4c-0.2-0.2-0.4-0.3-0.5-0.5c-0.1-0.1-0.2-0.3-0.2-0.6c0-0.3-0.1-0.6-0.1-0.9c0-0.3,0-0.6,0-0.9
		c0-0.2,0-0.4,0-0.9c0-0.4,0-1,0-1.6c0-0.6,0-1.3,0-2.1c0-0.8,0-1.6,0-2.5v-4h0c0-0.6,0-1.3,0-2c0-0.7,0-1.3,0-2c0-0.6,0-1.2,0-1.7
		c0-0.5,0-0.9,0-1.2c0-0.2,0-0.3,0.1-0.4c0.1-0.1,0.2-0.2,0.3-0.2c0.1,0,0.2-0.1,0.3-0.1c0.2,0,0.3,0,0.6-0.1c0.2,0,0.4,0,0.6,0
		c0.2,0,0.4,0,0.6,0c1,0,1.9,0,2.9,0.1c0.9,0.1,1.9,0.3,2.8,0.5c0.9,0.2,1.8,0.6,2.6,1.1c0.8,0.5,1.6,1.1,2.4,1.9
		c0.3,0.3,0.7,0.8,1,1.3c0.4,0.5,0.7,1.1,1,1.8c0.3,0.7,0.6,1.4,0.8,2.3c0.2,0.9,0.3,1.8,0.3,2.8c0,0.7-0.1,1.5-0.2,2.2
		c-0.1,0.7-0.3,1.5-0.5,2.1c-0.2,0.7-0.5,1.3-0.8,1.9c-0.3,0.6-0.7,1.1-1.1,1.5c-0.6,0.6-1.4,1.2-2.2,1.6c-0.8,0.5-1.7,0.8-2.6,1
		c-0.9,0.2-1.9,0.4-2.9,0.4c-1,0-1.8,0-2.4-0.1C321.3,57.2,320.8,57.1,320.3,56.9z"/>
	<path class="st0" d="M285.2,58.6c0.9,0,1.7-0.1,2.6-0.3c0.8-0.2,1.6-0.6,2.3-1c0.6-0.4,1-0.8,1.4-1.3c0.4-0.5,0.6-1,0.8-1.5
		c0.2-0.5,0.3-1,0.4-1.4c0.1-0.5,0.1-0.8,0.1-1.2c0-0.6,0-1.3-0.2-1.9c-0.1-0.6-0.4-1.2-0.7-1.8c-0.4-0.6-0.8-1.2-1.5-1.9
		c-0.6-0.6-1.4-1.3-2.4-2.1l-0.9-0.7c-0.8-0.6-1.4-1.1-1.9-1.6c-0.5-0.5-0.9-0.9-1.2-1.3c-0.3-0.4-0.5-0.8-0.6-1.2
		c-0.1-0.4-0.2-0.8-0.2-1.3c0-0.8,0.2-1.5,0.5-2c0.4-0.6,0.8-1,1.4-1.3c0.6-0.3,1.3-0.4,2-0.4s1.4,0.1,1.9,0.2
		c0.5,0.2,0.9,0.3,1.2,0.5c0.3,0.2,0.5,0.4,0.7,0.6c0.2,0.2,0.3,0.3,0.3,0.4c0.1,0.1,0.1,0.3,0.2,0.5c0.1,0.2,0.1,0.4,0.2,0.6
		c0,0.2,0.1,0.4,0.1,0.5c0,0.1,0,0.2,0.1,0.3c0,0.1,0.1,0.1,0.2,0.1c0.1,0,0.1,0,0.2-0.2c0-0.1,0-0.3,0-0.6c0-1.1,0-1.9,0.1-2.5
		c0-0.6,0.1-0.9,0.1-1c0-0.1,0-0.1-0.1-0.2c0,0-0.1-0.1-0.3-0.1c-0.1,0-0.3,0-0.4,0c-0.2,0-0.4-0.1-0.7-0.1
		c-0.4-0.1-0.8-0.2-1.3-0.2c-0.5,0-1-0.1-1.7-0.1c-1.4,0-2.6,0.3-3.6,0.7c-1,0.5-1.8,1.2-2.3,2c-0.5,0.9-0.8,1.9-0.8,3
		c0,0.5,0.1,1.1,0.2,1.6c0.1,0.5,0.3,1.1,0.6,1.7c0.3,0.6,0.7,1.1,1.3,1.8c0.6,0.6,1.3,1.3,2.1,2l1.5,1.2c0.7,0.6,1.3,1.1,1.8,1.6
		c0.5,0.5,0.9,0.9,1.2,1.4c0.3,0.4,0.5,0.9,0.6,1.4c0.1,0.5,0.2,1,0.2,1.5c0,0.5-0.1,1-0.3,1.5c-0.2,0.5-0.5,1-0.9,1.4
		c-0.4,0.4-0.9,0.7-1.5,1c-0.6,0.2-1.3,0.4-2,0.4c-0.5,0-1.1-0.1-1.6-0.2c-0.5-0.1-1-0.3-1.4-0.6c-0.4-0.3-0.8-0.6-1.1-1
		c-0.3-0.4-0.5-0.9-0.7-1.5c0-0.2-0.1-0.5-0.1-0.7c0-0.2,0-0.4,0-0.5c0-0.1,0-0.2,0-0.3c0,0-0.1-0.1-0.2-0.1c-0.1,0-0.1,0-0.2,0.1
		c0,0.1-0.1,0.2-0.1,0.4c0,0.2,0,0.4,0,0.8c0,0.3,0,0.7-0.1,1.2c0,0.5,0,1,0,1.5c0,0.3,0,0.5,0,0.7c0,0.2,0.1,0.3,0.1,0.3
		c0.1,0.1,0.2,0.2,0.3,0.2c0.7,0.3,1.4,0.5,2.1,0.7C283.7,58.6,284.5,58.6,285.2,58.6z"/>
	<path class="st0" d="M339.1,58.2c0.4,0,0.8,0,1.2,0c0.4,0,0.8,0,1.1,0c0.3,0,0.6,0,0.9,0c0.2,0,0.4,0,0.5,0c0.1,0,0.2,0,0.4,0
		c0.2,0,0.4,0,0.7,0c0.2,0,0.5,0,0.8,0c0.2,0,0.5,0,0.7,0c0.1,0,0.3,0,0.3-0.1c0.1,0,0.1-0.1,0.1-0.2c0-0.1,0-0.1-0.1-0.1
		c0,0-0.1,0-0.2,0h-0.3c-0.2,0-0.4,0-0.6-0.1c-0.2-0.1-0.3-0.2-0.5-0.3c-0.1-0.1-0.2-0.3-0.2-0.5c0-0.3,0-0.6,0.1-1
		c0.1-0.4,0.2-0.8,0.3-1.2l1.9-5.7c0-0.1,0.1-0.1,0.1-0.2c0,0,0.1-0.1,0.2-0.1h7c0.1,0,0.1,0,0.2,0c0,0,0.1,0.1,0.1,0.1l3,8
		c0.1,0.3,0.1,0.5,0,0.6c-0.1,0.1-0.1,0.2-0.2,0.3c-0.1,0-0.1,0-0.2,0.1c0,0-0.1,0.1-0.1,0.2c0,0.1,0.1,0.2,0.3,0.2
		c0.2,0,0.4,0,0.7,0c0.6,0,1.1,0,1.7,0c0.6,0,1.1,0,1.5,0c0.5,0,0.9,0,1.2,0c0.3,0,0.6,0,0.7,0c0.2,0,0.3,0,0.5-0.1
		c0.1,0,0.2-0.1,0.2-0.2c0-0.1,0-0.1-0.1-0.2c-0.1,0-0.1,0-0.2,0c-0.2,0-0.4,0-0.6,0c-0.2,0-0.5-0.1-0.7-0.2c-0.2,0-0.4-0.1-0.6-0.2
		c-0.2-0.1-0.4-0.3-0.7-0.5c-0.2-0.3-0.5-0.6-0.7-1.1c-0.3-0.5-0.5-1-0.8-1.7c-0.3-0.6-0.5-1.4-0.9-2.2c-0.3-0.9-0.7-1.8-1.1-2.8
		c-0.4-1-0.8-2-1.2-3.1c-0.4-1-0.8-2.1-1.2-3.1c-0.4-1-0.8-2-1.1-3c-0.4-0.9-0.7-1.8-1-2.5c-0.3-0.8-0.5-1.4-0.7-1.9
		c-0.2-0.5-0.3-0.8-0.4-1c-0.1-0.3-0.2-0.6-0.3-0.8c-0.1-0.2-0.2-0.3-0.2-0.3c-0.1-0.1-0.1-0.1-0.2-0.1c-0.1,0-0.1,0-0.2,0.1
		c-0.1,0.1-0.1,0.2-0.2,0.4c-0.1,0.2-0.2,0.5-0.3,0.8l-7.4,20.1c-0.2,0.5-0.4,1-0.6,1.5c-0.2,0.4-0.5,0.8-0.9,1.1
		c-0.3,0.3-0.7,0.5-1.2,0.5c-0.1,0-0.3,0-0.5,0c-0.2,0-0.3,0-0.5,0c-0.1,0-0.2,0-0.2,0c-0.1,0-0.1,0.1-0.1,0.1
		c0,0.1,0.1,0.2,0.2,0.2C338.7,58.1,338.9,58.2,339.1,58.2z M346.9,47.2l2.9-8.8c0.2-0.5,0.3-0.5,0.5,0l3.1,8.8c0,0.1,0,0.1,0,0.2
		c0,0-0.1,0.1-0.1,0.1H347c0,0-0.1,0-0.1-0.1C346.8,47.3,346.8,47.3,346.9,47.2z"/>
	<path class="st0" d="M299.3,34.1c0.1,0,0.3,0,0.5,0c0.2,0,0.4,0,0.6,0.1c0.3,0.1,0.6,0.3,0.8,0.6c0.2,0.3,0.3,0.7,0.3,1.3
		c0,0.2,0,0.4,0,0.6c0,0.2,0,0.5,0,0.8c0,0.3,0,0.7,0,1.2c0,0.5,0,1.1,0,1.8c0,0.7,0,1.6,0,2.6v5.7c0,1,0,2,0,2.9c0,0.9,0,1.7,0,2.4
		c0,0.7-0.1,1.3-0.1,1.7c0,0.3-0.1,0.6-0.2,0.8c-0.1,0.2-0.2,0.5-0.3,0.6c-0.1,0.2-0.3,0.3-0.5,0.3c-0.2,0-0.3,0.1-0.5,0.1
		c-0.2,0-0.3,0-0.5,0c-0.1,0-0.2,0-0.2,0c0,0-0.1,0.1-0.1,0.1c0,0.1,0,0.2,0.1,0.2c0.1,0,0.2,0.1,0.4,0.1c0.3,0,0.5,0,0.9,0
		c0.3,0,0.7,0,1,0c0.3,0,0.6,0,0.9,0c0.2,0,0.4,0,0.4,0c0,0,0.2,0,0.4,0c0.2,0,0.6,0,0.9,0c0.4,0,0.8,0,1.2,0c0.5,0,0.9,0,1.4,0
		c0.2,0,0.3,0,0.4-0.1c0.1,0,0.1-0.1,0.1-0.2c0,0,0-0.1,0-0.1c0,0-0.1,0-0.2,0c-0.1,0-0.2,0-0.4,0c-0.2,0-0.4,0-0.5,0
		c-0.2,0-0.4,0-0.5-0.1c-0.3,0-0.6-0.2-0.7-0.3c-0.2-0.2-0.3-0.4-0.4-0.6c-0.1-0.2-0.1-0.5-0.2-0.8c-0.1-0.5-0.1-1-0.1-1.7
		c0-0.7,0-1.5,0-2.4c0-0.9,0-1.9,0-2.9V43h0c0-1,0-1.9,0-2.6c0-0.7,0-1.3,0-1.8c0-0.5,0-0.9,0-1.2c0-0.3,0-0.6,0-0.8
		c0-0.2,0-0.4,0-0.6c0-0.6,0.1-1,0.3-1.3c0.2-0.3,0.5-0.5,0.9-0.5c0.2,0,0.3-0.1,0.5-0.1c0.1,0,0.2,0,0.3,0c0.1,0,0.1,0,0.2,0
		c0,0,0.1-0.1,0.1-0.1c0-0.1,0-0.2-0.1-0.2c-0.1,0-0.2-0.1-0.4-0.1c-0.2,0-0.5,0-0.9,0c-0.3,0-0.7,0-1,0c-0.3,0-0.6,0-0.9,0
		c-0.2,0-0.4,0-0.4,0c0,0-0.2,0-0.4,0c-0.2,0-0.5,0-0.9,0c-0.3,0-0.7,0-1,0c-0.4,0-0.7,0-0.9,0c-0.2,0-0.3,0-0.4,0.1
		c-0.1,0-0.1,0.1-0.1,0.2c0,0.1,0,0.1,0.1,0.1C299.2,34.1,299.2,34.1,299.3,34.1z"/>
	<path class="st0" d="M365.3,34.1c0.1,0,0.2,0,0.4,0c0.1,0,0.3,0,0.4,0c0.1,0,0.2,0,0.3,0.1c0.4,0.1,0.6,0.2,0.8,0.3
		c0.2,0.1,0.3,0.3,0.4,0.6c0.1,0.2,0.1,0.6,0.1,0.9c0,0.2,0,0.4,0,0.6c0,0.2,0,0.5,0,0.8c0,0.3,0,0.7,0,1.2c0,0.5,0,1.1,0,1.8
		c0,0.7,0,1.6,0,2.6v5.7c0,1,0,2,0,2.9c0,0.9,0,1.7,0,2.4c0,0.7-0.1,1.3-0.1,1.7c0,0.3-0.1,0.6-0.2,0.8c-0.1,0.2-0.2,0.5-0.3,0.6
		c-0.1,0.2-0.3,0.3-0.5,0.3c-0.1,0-0.3,0.1-0.5,0.1c-0.2,0-0.3,0-0.5,0c-0.1,0-0.2,0-0.2,0c0,0-0.1,0.1-0.1,0.1c0,0.1,0,0.2,0.1,0.2
		c0.1,0,0.2,0.1,0.4,0.1c0.2,0,0.5,0,0.9,0c0.3,0,0.7,0,1,0c0.3,0,0.6,0,0.9,0c0.2,0,0.4,0,0.4,0c0.1,0,0.2,0,0.5,0
		c0.2,0,0.6,0,0.9,0.1c0.4,0,0.8,0.1,1.3,0.1c0.5,0,1,0.1,1.5,0.1c0.5,0,1,0,1.5,0.1c0.5,0,1,0,1.5,0c1.4,0,2.6-0.1,3.7-0.4
		c1.1-0.2,2-0.6,2.8-0.9c0.8-0.4,1.5-0.8,2-1.2c0.6-0.4,1-0.8,1.3-1.2c0.5-0.5,0.9-1,1.3-1.7c0.4-0.6,0.8-1.3,1.1-2.1
		c0.3-0.8,0.6-1.6,0.8-2.5c0.2-0.9,0.3-1.9,0.3-2.9c0-1.3-0.2-2.5-0.5-3.5c-0.3-1-0.7-2-1.2-2.7c-0.5-0.8-1-1.5-1.5-2
		c-0.8-0.8-1.6-1.4-2.5-1.9c-0.9-0.5-1.8-0.8-2.8-1.1c-1-0.2-1.9-0.4-2.8-0.5c-0.9-0.1-1.8-0.1-2.6-0.2c-0.8,0-1.6,0-2.2,0
		c-0.5,0-1,0-1.5,0c-0.5,0-0.9,0-1.3,0c-0.4,0-0.7,0-1,0c-0.3,0-0.5,0-0.6,0c0,0-0.2,0-0.4,0c-0.2,0-0.5,0-0.9,0c-0.4,0-0.7,0-1.2,0
		c-0.4,0-0.8,0-1.2,0c-0.2,0-0.3,0-0.4,0.1c-0.1,0-0.1,0.1-0.1,0.2c0,0.1,0,0.1,0.1,0.1C365.1,34.1,365.2,34.1,365.3,34.1z
		 M370.6,46.5v-4c0-0.6,0-1.3,0-2c0-0.7,0-1.3,0-2c0-0.6,0-1.2,0-1.7c0-0.5,0-0.9,0-1.2c0-0.2,0-0.3,0.1-0.4
		c0.1-0.1,0.2-0.2,0.3-0.2c0.1,0,0.2-0.1,0.3-0.1c0.2,0,0.4,0,0.6-0.1c0.2,0,0.4,0,0.6,0c0.2,0,0.4,0,0.6,0c1,0,1.9,0,2.9,0.1
		c0.9,0.1,1.9,0.3,2.7,0.5c0.9,0.2,1.8,0.6,2.6,1.1c0.8,0.5,1.6,1.1,2.4,1.9c0.3,0.3,0.7,0.8,1,1.3c0.4,0.5,0.7,1.1,1,1.8
		c0.3,0.7,0.6,1.4,0.8,2.3c0.2,0.9,0.3,1.8,0.3,2.8c0,0.7,0,1.5-0.2,2.2c-0.1,0.7-0.3,1.5-0.5,2.1c-0.2,0.7-0.5,1.3-0.8,1.9
		c-0.3,0.6-0.7,1.1-1.1,1.5c-0.6,0.6-1.4,1.2-2.2,1.6c-0.8,0.5-1.7,0.8-2.6,1c-0.9,0.2-1.9,0.4-2.9,0.4c-1,0-1.8,0-2.4-0.1
		c-0.7-0.1-1.2-0.2-1.6-0.3c-0.4-0.1-0.7-0.3-1-0.4c-0.2-0.2-0.4-0.3-0.5-0.5c-0.1-0.1-0.2-0.3-0.2-0.6c0-0.3-0.1-0.6-0.1-0.9
		c0-0.3,0-0.6,0-0.9c0-0.2,0-0.4,0-0.9c0-0.4,0-1,0-1.6c0-0.6,0-1.3,0-2.1C370.6,48.2,370.6,47.4,370.6,46.5z"/>
	<path class="st0" d="M167.2,84.7c-0.7-1.1-1.4-2.1-2.3-3c-1.1-1.2-2.4-2.1-3.7-2.8c-1.3-0.7-2.7-1.2-4.1-1.6
		c-1.4-0.4-2.8-0.6-4.1-0.7c-1.4-0.1-2.6-0.2-3.8-0.2c-1.2,0-2.3,0-3.3,0c-0.7,0-1.4,0-2.1,0c-0.7,0-1.3,0-1.9,0c-0.6,0-1.1,0-1.5,0
		c-0.4,0-0.7,0-0.8,0c-0.1,0-0.3,0-0.6,0c-0.4,0-0.8,0-1.3,0c-0.5,0-1.1,0-1.7,0c-0.6,0-1.2,0-1.7,0c-0.2,0-0.4,0-0.6,0.1
		c-0.1,0.1-0.2,0.2-0.2,0.3c0,0.1,0,0.2,0.1,0.2c0.1,0,0.2,0.1,0.3,0.1c0.1,0,0.3,0,0.5,0c0.2,0,0.4,0,0.6,0c0.2,0,0.4,0,0.5,0.1
		c0.5,0.1,0.9,0.3,1.2,0.5c0.3,0.2,0.5,0.5,0.6,0.9c0.1,0.4,0.2,0.8,0.2,1.3c0,0.3,0,0.6,0,0.9c0,0.3,0,0.7,0,1.2c0,0.5,0,1,0,1.7
		c0,0.7,0,1.6,0,2.6c0,1,0,2.3,0,3.8v8.3c0,1.5,0,2.9,0,4.2c0,1.3,0,2.5-0.1,3.5c0,1-0.1,1.9-0.2,2.5c0,0.5-0.1,0.9-0.2,1.2
		c-0.1,0.4-0.2,0.7-0.4,0.9c-0.2,0.2-0.4,0.4-0.7,0.5c-0.2,0-0.5,0.1-0.7,0.1c-0.2,0-0.5,0.1-0.7,0.1c-0.1,0-0.2,0-0.3,0.1
		c-0.1,0.1-0.1,0.1-0.1,0.2c0,0.1,0.1,0.2,0.2,0.3c0.1,0.1,0.3,0.1,0.6,0.1c0.4,0,0.8,0,1.3,0c0.5,0,1-0.1,1.5-0.1
		c0.5,0,0.9,0,1.3,0c0.3,0,0.6,0,0.6,0c0.1,0,0.3,0,0.7,0c0.4,0,0.8,0.1,1.4,0.1c0.6,0,1.2,0.1,1.9,0.1c0.7,0,1.4,0.1,2.2,0.1
		c0.8,0,1.5,0.1,2.3,0.1c0.8,0,1.5,0,2.2,0c2,0,3.8-0.2,5.3-0.5c1.6-0.4,2.9-0.8,4.1-1.4c1.2-0.6,2.1-1.2,3-1.8
		c0.8-0.6,1.5-1.2,2-1.7c0.7-0.7,1.3-1.5,1.9-2.4c0.6-0.9,1.1-1.9,1.6-3.1c0.5-1.1,0.9-2.3,1.1-3.7c0.3-1.3,0.4-2.7,0.4-4.2
		c0-1.9-0.2-3.6-0.7-5.1C168.5,87.2,167.9,85.9,167.2,84.7z M165,98.6c-0.2,1.1-0.4,2.1-0.7,3.1c-0.3,1-0.7,1.9-1.2,2.8
		c-0.5,0.8-1,1.6-1.6,2.2c-0.9,0.9-2,1.7-3.2,2.4c-1.2,0.7-2.5,1.2-3.8,1.5c-1.4,0.4-2.8,0.5-4.3,0.5c-1.4,0-2.6-0.1-3.5-0.2
		c-1-0.1-1.7-0.3-2.4-0.4c-0.6-0.2-1.1-0.4-1.4-0.6c-0.3-0.2-0.6-0.5-0.7-0.7c-0.1-0.2-0.2-0.5-0.3-0.9c-0.1-0.4-0.1-0.9-0.2-1.4
		c0-0.5,0-0.9-0.1-1.3c0-0.2,0-0.7,0-1.3c0-0.6,0-1.4,0-2.3c0-0.9,0-2,0-3.1c0-1.1,0-2.3,0-3.6v-5.9c0-0.9,0-1.9,0-2.9
		c0-1,0-2,0-2.9c0-0.9,0-1.8,0-2.5c0-0.7,0-1.3,0-1.7c0-0.3,0-0.5,0.1-0.6c0.1-0.1,0.2-0.3,0.4-0.3c0.1,0,0.3-0.1,0.5-0.1
		c0.2,0,0.5-0.1,0.8-0.1c0.3,0,0.6,0,0.9-0.1c0.3,0,0.6,0,0.8,0c1.4,0,2.8,0,4.2,0.2c1.4,0.1,2.7,0.4,4,0.7c1.3,0.4,2.6,0.9,3.8,1.6
		c1.2,0.7,2.4,1.7,3.5,2.8c0.5,0.5,1,1.1,1.5,1.9c0.5,0.7,1,1.6,1.5,2.6c0.5,1,0.8,2.1,1.1,3.3c0.3,1.2,0.4,2.6,0.4,4.1
		C165.3,96.4,165.2,97.5,165,98.6z"/>
	<path class="st0" d="M195.6,105.8c-0.1,0-0.2,0-0.3,0.2c-0.1,0.1-0.1,0.3-0.2,0.5c-0.1,1-0.4,1.7-0.7,2.2c-0.3,0.5-0.8,0.9-1.4,1.2
		c-0.4,0.2-0.9,0.3-1.5,0.4c-0.5,0.1-1.1,0.1-1.6,0.1c-0.5,0-1,0-1.5,0c-1.2,0-2.1,0-2.8-0.1c-0.7-0.1-1.3-0.3-1.6-0.6
		c-0.4-0.3-0.6-0.7-0.8-1.2c-0.1-0.5-0.2-1.2-0.3-2c0-0.2,0-0.6,0-1.1s0-1.1,0-1.7s0-1.3,0-2c0-0.7,0-1.3,0-1.9c0-0.6,0-1,0-1.4
		v-4.2c0-0.1,0-0.2,0.1-0.2c0-0.1,0.1-0.1,0.3-0.1c0.2,0,0.5,0,0.9,0c0.4,0,0.9,0,1.5,0c0.6,0,1.1,0,1.7,0c0.6,0,1.1,0,1.6,0.1
		c0.5,0,0.8,0,1.1,0.1c0.6,0.1,1.1,0.2,1.4,0.4c0.3,0.2,0.6,0.4,0.7,0.6c0.2,0.2,0.3,0.5,0.3,0.7c0.1,0.3,0.1,0.6,0.2,0.8
		c0,0.3,0,0.5,0,0.7c0,0.1,0,0.2,0.1,0.3c0,0.1,0.1,0.1,0.3,0.1c0.1,0,0.2-0.1,0.2-0.2c0-0.1,0.1-0.2,0.1-0.3c0-0.1,0-0.3,0-0.4
		c0-0.1,0-0.3,0-0.5c0-0.2,0-0.5,0-0.8c0-0.3,0-0.6,0-0.9c0-0.3,0-0.6,0.1-0.8c0.1-0.8,0.2-1.4,0.2-1.8c0.1-0.4,0.1-0.7,0.1-0.8
		c0-0.1,0-0.2-0.1-0.3c0,0-0.1-0.1-0.2-0.1c-0.1,0-0.2,0-0.3,0.2c-0.1,0.1-0.2,0.2-0.4,0.5c-0.2,0.2-0.5,0.4-0.8,0.5
		c-0.4,0.1-0.8,0.2-1.4,0.2c-0.2,0-0.5,0-0.9,0c-0.4,0-0.9,0-1.4,0c-0.5,0-1.1,0-1.7,0c-0.6,0-1.1,0-1.6,0c-0.5,0-0.9,0-1.3,0
		c-0.4,0-0.6,0-0.7,0c-0.1,0-0.2,0-0.2-0.1c0-0.1,0-0.2,0-0.4V78.7c0-0.2,0-0.3,0.1-0.4c0-0.1,0.1-0.1,0.2-0.1c0.1,0,0.4,0,0.8,0
		c0.4,0,0.9,0,1.5,0c0.6,0,1.2,0,1.7,0c0.6,0,1.1,0,1.5,0c0.5,0,0.7,0,0.9,0.1c0.8,0.1,1.5,0.2,1.9,0.4c0.5,0.2,0.8,0.3,1,0.5
		c0.2,0.2,0.4,0.4,0.5,0.7c0.1,0.2,0.1,0.4,0.2,0.6c0,0.2,0.1,0.4,0.1,0.6c0,0.2,0,0.3,0,0.5c0,0.2,0,0.3,0.1,0.4
		c0,0.1,0.1,0.2,0.3,0.2c0.1,0,0.2-0.1,0.2-0.2c0-0.1,0.1-0.2,0.1-0.3c0-0.2,0-0.4,0.1-0.7c0-0.3,0-0.6,0.1-0.9c0-0.3,0-0.6,0.1-0.9
		c0-0.3,0-0.5,0-0.6c0.1-0.7,0.2-1.1,0.3-1.5c0.1-0.3,0.1-0.6,0.1-0.7c0-0.1,0-0.2,0-0.3c0-0.1-0.1-0.1-0.1-0.1
		c-0.1,0-0.2,0-0.3,0.1c-0.1,0-0.2,0.1-0.3,0.1c-0.2,0-0.5,0.1-0.8,0.1c-0.4,0-0.8,0.1-1.2,0.1c-0.2,0-0.5,0-0.9,0c-0.5,0-1,0-1.6,0
		c-0.7,0-1.3,0-2.1,0c-0.7,0-1.5,0-2.2,0c-0.7,0-1.4,0-2,0c-0.6,0-1.1,0-1.5,0s-0.6,0-0.6,0l-1.9-0.1c-0.5,0-1.1,0-1.7,0
		c-0.6,0-1.2,0-1.7,0c-0.3,0-0.5,0-0.6,0.1c-0.1,0.1-0.2,0.2-0.2,0.3c0,0.1,0,0.2,0.1,0.2c0.1,0,0.2,0.1,0.3,0.1c0.2,0,0.3,0,0.5,0
		c0.2,0,0.4,0,0.6,0c0.2,0,0.4,0,0.5,0.1c0.5,0.1,0.9,0.3,1.2,0.5c0.3,0.2,0.5,0.5,0.6,0.9c0.1,0.4,0.2,0.8,0.2,1.3
		c0,0.3,0,0.6,0,0.9c0,0.3,0,0.7,0,1.2c0,0.5,0,1,0,1.7c0,0.7,0,1.6,0,2.6c0,1,0,2.3,0,3.8v8.3c0,1.5,0,2.9,0,4.2
		c0,1.3,0,2.5-0.1,3.5c0,1-0.1,1.9-0.2,2.5c-0.1,0.5-0.1,0.9-0.2,1.2c-0.1,0.4-0.2,0.7-0.4,0.9c-0.2,0.2-0.4,0.4-0.7,0.5
		c-0.2,0-0.5,0.1-0.7,0.1c-0.3,0-0.5,0.1-0.7,0.1c-0.1,0-0.2,0-0.3,0.1c-0.1,0.1-0.1,0.1-0.1,0.2c0,0.1,0.1,0.2,0.2,0.3
		c0.1,0.1,0.3,0.1,0.6,0.1c0.4,0,0.8,0,1.3,0c0.5,0,1-0.1,1.5-0.1c0.5,0,0.9,0,1.3,0c0.3,0,0.5,0,0.6,0c0.3,0,0.8,0,1.4,0
		c0.6,0,1.4,0.1,2.3,0.1c0.9,0,2,0,3.4,0.1c1.3,0,2.9,0,4.7,0c0.6,0,1.1,0,1.4,0c0.3,0,0.6-0.1,0.7-0.3c0.2-0.2,0.3-0.5,0.4-0.9
		c0-0.2,0.1-0.5,0.2-0.8c0-0.3,0.1-0.7,0.2-1.1c0.1-0.4,0.1-0.8,0.2-1.2c0-0.4,0.1-0.7,0.1-1c0-0.3,0-0.4,0-0.5c0-0.2,0-0.3,0-0.5
		C195.9,105.9,195.8,105.8,195.6,105.8z"/>
	<path class="st0" d="M317.1,76.1c-0.4,0-0.7,0-1.2,0c-0.4,0-0.8,0-1.2,0c-0.4,0-0.7,0-1,0c-0.3,0-0.5,0-0.6,0c-0.1,0-0.3,0-0.6,0
		c-0.3,0-0.7,0-1.2,0c-0.5,0-1,0-1.6,0c-0.5,0-1.1,0-1.6,0c-0.3,0-0.5,0-0.6,0.1c-0.1,0.1-0.2,0.2-0.2,0.3c0,0.1,0,0.2,0.1,0.2
		c0.1,0,0.2,0.1,0.3,0.1c0.2,0,0.3,0,0.5,0c0.2,0,0.4,0,0.6,0c0.2,0,0.4,0,0.5,0.1c0.5,0.1,0.9,0.3,1.2,0.5c0.3,0.2,0.5,0.5,0.6,0.9
		c0.1,0.4,0.2,0.8,0.2,1.3c0,0.3,0,0.6,0,0.9c0,0.3,0,0.7,0,1.2c0,0.5,0,1,0,1.7c0,0.7,0,1.6,0,2.6s0,2.3,0,3.8v5.9
		c0,1.6-0.1,3.2-0.2,4.6c-0.2,1.4-0.4,2.7-0.8,3.9c-0.4,1.2-1,2.2-1.7,3.1c-0.6,0.7-1.3,1.3-2,1.8c-0.8,0.5-1.6,0.9-2.6,1.2
		c-0.9,0.3-1.9,0.4-2.8,0.4c-0.9,0-1.8-0.1-2.5-0.2c-0.8-0.1-1.6-0.4-2.3-0.8s-1.5-0.9-2.3-1.6c-0.5-0.5-1-1-1.4-1.7
		c-0.4-0.6-0.8-1.4-1.1-2.3c-0.3-0.9-0.6-2-0.7-3.3c-0.2-1.2-0.3-2.7-0.3-4.4v-6.6c0-1.5,0-2.7,0-3.8s0-1.9,0-2.6c0-0.7,0-1.3,0-1.7
		c0-0.5,0-0.9,0-1.2c0-0.3,0-0.6,0-0.9c0-0.8,0.2-1.5,0.4-1.9c0.2-0.4,0.7-0.7,1.3-0.8c0.3,0,0.5-0.1,0.7-0.1c0.2,0,0.3,0,0.5,0
		c0.1,0,0.2,0,0.3-0.1c0.1,0,0.1-0.1,0.1-0.2c0-0.1-0.1-0.2-0.2-0.3c-0.1,0-0.3-0.1-0.6-0.1c-0.4,0-0.8,0-1.3,0c-0.5,0-1,0-1.5,0
		c-0.5,0-0.9,0-1.3,0c-0.4,0-0.6,0-0.7,0s-0.4,0-0.7,0c-0.4,0-0.8,0-1.4,0c-0.5,0-1.1,0-1.7,0c-0.6,0-1.1,0-1.7,0
		c-0.3,0-0.5,0-0.6,0.1c-0.1,0.1-0.2,0.2-0.2,0.3c0,0.1,0,0.2,0.1,0.2c0.1,0,0.2,0.1,0.3,0.1c0.1,0,0.3,0,0.5,0c0.2,0,0.4,0,0.6,0
		c0.2,0,0.4,0,0.5,0.1c0.5,0.1,0.9,0.3,1.2,0.5c0.3,0.2,0.5,0.5,0.6,0.9c0.1,0.4,0.2,0.8,0.2,1.3c0,0.3,0,0.6,0,0.9
		c0,0.3,0,0.7,0,1.2c0,0.5,0,1,0,1.7c0,0.7,0,1.6,0,2.6s0,2.3,0,3.8v6.9h0c0,1.7,0.1,3.2,0.3,4.5c0.2,1.3,0.5,2.5,0.9,3.4
		c0.4,1,0.8,1.8,1.3,2.6c0.5,0.7,1,1.4,1.6,1.9c0.9,0.8,1.8,1.4,2.7,1.9c1,0.5,1.9,0.8,2.8,1c0.9,0.2,1.7,0.3,2.5,0.4
		c0.7,0.1,1.3,0.1,1.7,0.1c1,0,2-0.1,3-0.2c1.1-0.2,2.2-0.5,3.3-1c1.1-0.5,2.3-1.3,3.4-2.2c1-0.8,1.7-1.8,2.3-2.9
		c0.6-1.1,1-2.3,1.3-3.5c0.3-1.2,0.5-2.5,0.6-3.8c0.1-1.3,0.2-2.6,0.2-3.9v-5.1c0-1.5,0-2.7,0-3.8s0-1.9,0-2.6c0-0.7,0-1.3,0-1.7
		c0-0.5,0-0.9,0-1.2c0-0.3,0-0.6,0-0.9c0-0.8,0.2-1.4,0.4-1.9c0.2-0.4,0.7-0.7,1.3-0.8c0.3,0,0.5-0.1,0.7-0.1c0.2,0,0.4,0,0.5,0
		c0.1,0,0.2,0,0.3-0.1c0.1,0,0.1-0.1,0.1-0.2c0-0.1-0.1-0.2-0.2-0.3C317.6,76.2,317.4,76.1,317.1,76.1z"/>
	<path class="st0" d="M277.9,111.3c-0.1,0-0.3,0-0.6,0c-0.3,0-0.5,0-0.8-0.1c-0.3,0-0.5-0.1-0.7-0.1c-0.5-0.1-0.8-0.2-1.1-0.5
		c-0.3-0.2-0.4-0.5-0.5-0.9c-0.1-0.4-0.2-0.8-0.2-1.2c-0.1-0.7-0.1-1.5-0.2-2.5c0-1-0.1-2.2-0.1-3.5c0-1.3,0-2.7,0-4.2v-8.3
		c0-1.5,0-2.7,0-3.8s0-1.9,0-2.6c0-0.7,0-1.3,0-1.7c0-0.5,0-0.9,0-1.2c0-0.3,0-0.6,0-0.9c0-0.8,0.2-1.5,0.4-1.9
		c0.3-0.4,0.7-0.7,1.3-0.8c0.3,0,0.5-0.1,0.7-0.1c0.2,0,0.4,0,0.5,0c0.1,0,0.2,0,0.3-0.1c0.1,0,0.1-0.1,0.1-0.2
		c0-0.1-0.1-0.2-0.2-0.3c-0.1,0-0.3-0.1-0.6-0.1c-0.4,0-0.8,0-1.3,0c-0.5,0-1,0-1.5,0c-0.5,0-0.9,0-1.3,0c-0.3,0-0.5,0-0.6,0
		c-0.1,0-0.3,0-0.6,0c-0.4,0-0.8,0-1.3,0c-0.5,0-1,0-1.5,0c-0.5,0-1,0-1.4,0c-0.3,0-0.5,0-0.6,0.1c-0.1,0.1-0.2,0.2-0.2,0.3
		c0,0.1,0,0.2,0.1,0.2c0.1,0,0.2,0.1,0.3,0.1c0.2,0,0.4,0,0.7,0c0.3,0,0.5,0.1,0.8,0.1c0.5,0.1,0.9,0.4,1.2,0.8
		c0.3,0.4,0.4,1,0.5,1.8c0,0.3,0,0.6,0,0.9c0,0.3,0,0.7,0,1.2c0,0.5,0,1,0,1.7c0,0.7,0,1.6,0,2.6s0,2.3,0,3.8v8.3c0,1.5,0,2.9,0,4.2
		c0,1.3,0,2.5-0.1,3.5c0,1-0.1,1.9-0.2,2.5c-0.1,0.5-0.1,0.9-0.2,1.2c-0.1,0.4-0.2,0.7-0.4,0.9c-0.2,0.2-0.4,0.4-0.7,0.5
		c-0.2,0-0.5,0.1-0.7,0.1c-0.3,0-0.5,0.1-0.7,0.1c-0.1,0-0.2,0-0.3,0.1c-0.1,0.1-0.1,0.1-0.1,0.2c0,0.1,0.1,0.2,0.2,0.3
		c0.1,0.1,0.3,0.1,0.6,0.1c0.4,0,0.8,0,1.3,0c0.5,0,1,0,1.5,0c0.5,0,0.9,0,1.3,0c0.3,0,0.5,0,0.6,0c0.1,0,0.3,0,0.6,0
		c0.4,0,0.8,0,1.4,0c0.6,0,1.2,0,1.8,0c0.7,0,1.3,0,2,0c0.3,0,0.5,0,0.6-0.1c0.1-0.1,0.2-0.2,0.2-0.3c0-0.1,0-0.1-0.1-0.2
		C278.1,111.3,278,111.3,277.9,111.3z"/>
	<path class="st0" d="M258.6,74.5c-0.4-0.7-0.9-1.2-1.3-1.6c-0.2-0.2-0.6-0.5-1-0.9c-0.5-0.3-1.1-0.7-1.9-1c-0.8-0.4-1.8-0.7-3-0.9
		c-1.2-0.3-2.7-0.4-4.4-0.4c-0.7,0-1.3,0-2,0c-0.7,0-1.4,0-2,0.1c-0.7,0-1.2,0-1.8,0c-0.5,0-0.9,0-1.2,0c-0.1,0-0.4,0-0.8,0
		c-0.4,0-1,0-1.6,0c-0.6,0-1.3,0-2-0.1c-0.7,0-1.3,0-2,0c-0.3,0-0.5,0-0.7,0.1c-0.1,0.1-0.2,0.2-0.2,0.4c0,0.1,0.1,0.2,0.1,0.2
		c0.1,0.1,0.2,0.1,0.3,0.1c0.2,0,0.4,0,0.6,0c0.2,0,0.5,0,0.7,0.1c0.2,0,0.4,0,0.6,0.1c0.6,0.1,1.1,0.3,1.4,0.6
		c0.3,0.2,0.6,0.6,0.7,1c0.1,0.4,0.2,1,0.3,1.6c0,0.3,0,0.7,0,1.1c0,0.4,0,0.9,0,1.4c0,0.5,0,1.2,0,2.1c0,0.8,0,1.8,0,3.1
		c0,1.2,0,2.7,0,4.4v9.8c0,1.8,0,3.5,0,5c0,1.5,0,2.9-0.1,4.1c0,1.2-0.1,2.2-0.2,3c-0.1,0.5-0.2,1-0.3,1.5c-0.1,0.4-0.3,0.8-0.5,1.1
		c-0.2,0.3-0.5,0.5-0.9,0.5c-0.2,0.1-0.5,0.1-0.8,0.2c-0.3,0-0.6,0.1-0.8,0.1c-0.2,0-0.3,0-0.3,0.1c-0.1,0.1-0.1,0.2-0.1,0.2
		c0,0.2,0.1,0.3,0.2,0.3c0.1,0.1,0.4,0.1,0.7,0.1c0.4,0,0.9,0,1.5,0c0.6,0,1.2,0,1.7,0c0.6,0,1.1,0,1.5-0.1c0.4,0,0.6,0,0.7,0
		c0.1,0,0.3,0,0.8,0c0.4,0,1,0,1.6,0.1c0.7,0,1.4,0,2.2,0c0.8,0,1.6,0,2.3,0c0.3,0,0.5,0,0.7-0.1c0.1-0.1,0.2-0.2,0.2-0.3
		c0-0.1,0-0.2-0.1-0.2c-0.1-0.1-0.2-0.1-0.4-0.1c-0.2,0-0.4,0-0.7,0c-0.3,0-0.6-0.1-0.9-0.1c-0.3,0-0.6-0.1-0.9-0.1
		c-0.5-0.1-1-0.3-1.3-0.5c-0.3-0.3-0.5-0.6-0.6-1.1c-0.1-0.4-0.2-0.9-0.3-1.5c-0.1-0.8-0.2-1.8-0.2-3c0-1.2-0.1-2.6-0.1-4.1
		c0-1.5,0-3.2,0-5v-23c0-0.3,0-0.5,0.1-0.7c0.1-0.2,0.2-0.3,0.4-0.4c0.3-0.1,0.6-0.2,1-0.2c0.4-0.1,0.9-0.1,1.4-0.1
		c0.3,0,0.8,0,1.3,0c0.6,0,1.2,0.1,1.9,0.3c0.7,0.2,1.4,0.4,2.2,0.8c0.8,0.4,1.5,1,2.3,1.7c0.7,0.8,1.3,1.5,1.7,2.4
		c0.4,0.8,0.7,1.6,0.9,2.4c0.2,0.8,0.3,1.5,0.4,2.2c0.1,0.7,0.1,1.2,0.1,1.7c0,1.3-0.2,2.5-0.7,3.6c-0.5,1.1-1.2,2.1-2.1,2.9
		c-0.9,0.8-1.9,1.5-3.1,1.9c-1.2,0.5-2.5,0.7-3.8,0.7c-0.6,0-1,0-1.2,0.1c-0.2,0.1-0.3,0.2-0.3,0.4c0,0.1,0.1,0.2,0.2,0.3
		c0.1,0.1,0.3,0.1,0.4,0.1c0.2,0,0.4,0,0.6,0c0.2,0,0.4,0,0.6,0c2,0,3.8-0.3,5.5-1c1.7-0.6,3.1-1.5,4.4-2.7c1.2-1.2,2.2-2.6,2.9-4.2
		c0.7-1.6,1-3.4,1-5.4c0-1-0.2-1.9-0.5-2.8C259.4,75.9,259,75.1,258.6,74.5z"/>
	<path class="st0" d="M393.2,111.6c-0.1,0-0.2-0.1-0.3-0.1c-0.2,0-0.5,0-0.9-0.1c-0.3,0-0.7-0.1-1-0.2c-0.2-0.1-0.5-0.2-0.8-0.3
		c-0.3-0.2-0.6-0.4-1-0.8c-0.3-0.4-0.7-0.9-1.1-1.5c-0.4-0.7-0.8-1.5-1.2-2.6c-0.4-0.9-0.8-2-1.3-3.2c-0.5-1.2-1-2.6-1.6-4
		c-0.6-1.4-1.1-2.9-1.7-4.5c-0.6-1.5-1.2-3.1-1.8-4.6c-0.6-1.5-1.1-3-1.7-4.3c-0.5-1.4-1-2.6-1.4-3.7c-0.4-1.1-0.8-2-1.1-2.8
		c-0.3-0.7-0.5-1.2-0.6-1.4c-0.2-0.5-0.3-0.9-0.5-1.1c-0.1-0.2-0.2-0.4-0.3-0.5c-0.1-0.1-0.2-0.1-0.3-0.1c-0.1,0-0.2,0-0.3,0.1
		c-0.1,0.1-0.2,0.3-0.3,0.5c-0.1,0.3-0.3,0.7-0.5,1.2L363,107c-0.3,0.8-0.6,1.5-0.9,2.1c-0.3,0.6-0.8,1.2-1.2,1.5
		c-0.5,0.4-1.1,0.7-1.8,0.8c-0.2,0-0.4,0-0.7,0.1c-0.1,0-0.2,0-0.3,0c0-0.1,0-0.1-0.1-0.2c-0.1-0.1-0.2-0.1-0.3-0.1
		c-0.1,0-0.4,0-0.7,0c-0.3,0-0.7,0-1.2-0.1c-0.4,0-0.9-0.2-1.5-0.4c-0.6-0.2-1.2-0.5-2-1c-0.7-0.5-1.5-1.2-2.4-2
		c-1.4-1.5-2.9-3.2-4.5-5.3c-1.6-2-3.4-4.3-5.4-6.8c1.4-1.3,2.5-2.6,3.4-3.8c0.8-1.2,1.4-2.4,1.8-3.6c0.4-1.2,0.5-2.4,0.5-3.5
		c0-0.8-0.1-1.6-0.4-2.3c-0.2-0.7-0.5-1.3-0.8-1.9c-0.3-0.5-0.7-1-1.1-1.4c-0.4-0.4-0.7-0.7-1-0.9c-0.8-0.6-1.8-1-2.7-1.3
		c-1-0.3-1.9-0.5-3-0.6c-1-0.1-2-0.2-3-0.1c-0.3,0-0.7,0-1.1,0c-0.4,0-0.9,0-1.4,0c-0.5,0-0.9,0-1.4,0c-0.4,0-0.8,0-1.1,0
		c-0.3,0-0.5,0-0.6,0c-0.1,0-0.3,0-0.6,0c-0.3,0-0.8,0-1.3,0c-0.5,0-1.1,0-1.7,0c-0.6,0-1.2,0-1.7,0c-0.2,0-0.4,0-0.6,0.1
		c-0.1,0.1-0.2,0.2-0.2,0.3c0,0.1,0,0.2,0.1,0.2c0.1,0,0.2,0.1,0.3,0.1c0.1,0,0.3,0,0.5,0c0.2,0,0.4,0,0.6,0c0.2,0,0.4,0,0.5,0.1
		c0.5,0.1,0.9,0.3,1.2,0.5c0.3,0.2,0.5,0.5,0.6,0.9c0.1,0.4,0.2,0.8,0.2,1.3c0,0.3,0,0.6,0,0.9c0,0.3,0,0.7,0,1.2c0,0.5,0,1,0,1.7
		c0,0.7,0,1.6,0,2.6s0,2.3,0,3.8v8.3c0,1.5,0,2.9,0,4.2c0,1.3,0,2.5-0.1,3.5c0,1-0.1,1.9-0.2,2.5c-0.1,0.5-0.1,0.9-0.2,1.2
		c-0.1,0.4-0.2,0.7-0.4,0.9c-0.2,0.2-0.4,0.4-0.7,0.5c-0.2,0-0.5,0.1-0.7,0.1c-0.3,0-0.5,0.1-0.7,0.1c-0.1,0-0.2,0-0.3,0.1
		c-0.1,0.1-0.1,0.1-0.1,0.2c0,0.1,0.1,0.2,0.2,0.3c0.1,0.1,0.3,0.1,0.6,0.1c0.4,0,0.8,0,1.3,0c0.5,0,1,0,1.5,0c0.5,0,0.9,0,1.2,0
		c0.3,0,0.5,0,0.5,0c0.1,0,0.3,0,0.6,0c0.4,0,0.8,0,1.4,0c0.5,0,1.2,0,1.8,0c0.7,0,1.3,0,2,0c0.3,0,0.5,0,0.6-0.1
		c0.1-0.1,0.2-0.2,0.2-0.3c0-0.1,0-0.1-0.1-0.2c-0.1-0.1-0.2-0.1-0.3-0.1c-0.2,0-0.4,0-0.6,0c-0.3,0-0.5,0-0.8-0.1
		c-0.3,0-0.5-0.1-0.7-0.1c-0.5-0.1-0.8-0.2-1.1-0.5c-0.3-0.2-0.4-0.5-0.5-0.9c-0.1-0.4-0.2-0.8-0.2-1.2c-0.1-0.7-0.1-1.5-0.2-2.5
		c0-1,0-2.2-0.1-3.5c0-1.3,0-2.7,0-4.2v-1.1c0-0.1,0-0.2,0.1-0.3c0-0.1,0.1-0.1,0.2-0.1l5.8,0.1c0.1,0,0.3,0,0.3,0.1
		c0.1,0,0.2,0.1,0.3,0.2c0.3,0.3,0.6,0.7,0.9,1.2c0.4,0.5,0.8,1.1,1.3,1.7c0.5,0.6,0.9,1.3,1.5,2c0.5,0.7,1,1.4,1.5,2
		c0.9,1.2,1.7,2.2,2.4,3.1c0.7,0.9,1.4,1.7,2,2.3c0.6,0.6,1.3,1.1,2,1.5c0.4,0.2,0.8,0.4,1.3,0.5c0.5,0.1,1,0.2,1.6,0.3
		c0.6,0.1,1.3,0.1,2.2,0.1h3.4c0.2,0,0.3,0,0.4,0c0,0.1,0.1,0.2,0.2,0.2c0.1,0.1,0.4,0.1,0.7,0.1c0.6,0,1.1,0,1.7,0
		c0.6,0,1.1,0,1.6,0c0.5,0,0.9,0,1.3,0c0.3,0,0.6,0,0.7,0c0.1,0,0.3,0,0.6,0c0.3,0,0.6,0,1,0c0.4,0,0.7,0,1.1,0c0.4,0,0.7,0,1,0
		c0.2,0,0.4,0,0.5-0.1c0.1,0,0.2-0.1,0.2-0.3c0-0.1,0-0.2-0.1-0.2c-0.1,0-0.2-0.1-0.4-0.1h-0.5c-0.3,0-0.6,0-0.8-0.1
		c-0.3-0.1-0.5-0.2-0.7-0.5c-0.2-0.2-0.3-0.5-0.3-0.8c0-0.4,0-0.9,0.2-1.5c0.1-0.5,0.3-1.1,0.5-1.7l2.8-8.4c0-0.1,0.1-0.2,0.2-0.3
		c0.1-0.1,0.2-0.1,0.3-0.1h10.2c0.1,0,0.2,0,0.3,0.1c0.1,0,0.1,0.1,0.2,0.2l4.4,11.6c0.1,0.4,0.2,0.7,0.1,0.9
		c-0.1,0.2-0.2,0.3-0.4,0.4c-0.1,0-0.2,0.1-0.2,0.1c-0.1,0.1-0.1,0.1-0.1,0.2c0,0.1,0.1,0.2,0.4,0.2c0.2,0,0.6,0.1,1,0.1
		c0.8,0,1.6,0,2.4,0c0.8,0,1.5,0,2.2,0c0.7,0,1.3,0,1.8,0c0.5,0,0.8,0,1,0c0.3,0,0.5,0,0.7-0.1c0.2,0,0.3-0.1,0.3-0.3
		C393.3,111.7,393.3,111.7,393.2,111.6z M339,94.4c-0.5,0.4-1.1,0.6-1.7,0.7c-0.6,0.1-1.2,0.2-1.8,0.2c-0.7,0-1.4,0-2.1-0.1
		c-0.7-0.1-1.3-0.2-1.8-0.3c-0.5-0.1-0.9-0.2-1.1-0.4c-0.1-0.1-0.2-0.2-0.2-0.3c-0.1-0.1-0.1-0.2-0.1-0.3V78.5c0-0.1,0-0.3,0.1-0.4
		c0.1-0.1,0.2-0.2,0.3-0.2c0.2,0,0.4-0.1,0.7-0.1c0.3,0,0.7-0.1,1.1-0.1c0.4,0,0.9,0,1.3,0c1.7,0,3.2,0.4,4.4,1.1
		c1.2,0.7,2.2,1.8,2.8,3.2c0.7,1.4,1,3.1,1,5.1c0,1.2-0.1,2.3-0.4,3.2c-0.3,1-0.6,1.8-1,2.5C340,93.5,339.5,94.1,339,94.4z
		 M378.7,96.6h-9.1c-0.1,0-0.1,0-0.2-0.1c0,0,0-0.1,0-0.3l4.2-12.8c0.2-0.7,0.5-0.7,0.7,0l4.5,12.8c0,0.1,0,0.2,0,0.2
		C378.9,96.5,378.8,96.6,378.7,96.6z"/>
</g>
<path class="st0" d="M97.4,100c-0.7,0.7-0.7,1.9,0,2.6c0.3,0.4,0.8,0.5,1.3,0.5c0.5,0,1-0.2,1.3-0.5c0.7-0.7,0.7-1.9,0-2.6
	C99.3,99.3,98.1,99.3,97.4,100z"/>
<path class="st0" d="M18.6,101.4c0-1-0.8-1.9-1.9-1.9c-1,0-1.9,0.8-1.9,1.9c0,1,0.8,1.9,1.9,1.9C17.7,103.3,18.6,102.5,18.6,101.4z"
	/>
<path class="st0" d="M95.9,112c-0.1,0-0.1-0.1-0.2-0.1c-0.8-0.4-1.7-0.3-2.5,0c-0.4,0.2-0.8,0.5-1.3,0.7c-0.4,0.2-1,0.2-1.3-0.1
	c-0.4-0.4-0.3-1-0.1-1.5c0.1-0.3,0.2-0.5,0.5-0.6c0.1,0,0.3,0,0.4-0.1c0.2-0.2,0.2-0.6,0-0.8c-0.2-0.3-0.5-0.5-0.8-0.5
	c-0.2,0-0.5,0.2-0.6,0.4c-0.1,0.2-0.3,0.4-0.5,0.6c-0.1,0.2-0.2,0.6-0.3,0.9c-0.1,0.6-0.2,1.2,0,1.8c0.3,1,1.2,1.8,2.3,1.7
	c0.5,0,1-0.2,1.4-0.5c0.4-0.2,0.9-0.5,1.4-0.6c0.5-0.1,1,0,1.4,0.3c0.3,0.3,0.5,0.7,0.4,1.2c0,0.4-0.2,0.8-0.4,1.2
	c-0.1,0.2-0.2,0.3-0.3,0.4c-0.2,0.2-0.5,0.2-0.6,0.4c-0.1,0.2-0.1,0.4,0,0.6c0.1,0.2,0.3,0.3,0.5,0.4c0.2,0.1,0.5,0.2,0.7,0.1
	c0.2-0.1,0.4-0.3,0.6-0.5c0.3-0.5,0.5-1,0.6-1.5c0.2-0.7,0.2-1.3,0.1-2C97.1,113.1,96.6,112.4,95.9,112z"/>
<path class="st0" d="M91.3,121.9c-0.9-0.5-1.6-1.2-2.3-2c-1-0.9-2.1-1.8-3-2.8c-0.2-0.2-0.4-0.5-0.7-0.7c-0.3-0.1-0.7-0.1-0.9,0.1
	c-0.2,0.2-0.3,0.5-0.3,0.8c0,0.3,0.1,0.5,0.3,0.7c0.1,0.1,0.2,0.1,0.3,0.2c0.2,0.1,0.5,0.3,0.7,0.5c1.5,1.3,3,2.7,4.4,4.1
	c0.2,0.2,0.3,0.3,0.5,0.5c0.1,0.2,0.2,0.4,0.4,0.5c0.2,0.1,0.5,0,0.7-0.1c0.3-0.1,0.5-0.3,0.7-0.6c0.2-0.2,0.2-0.6,0-0.8
	c-0.1-0.2-0.4-0.3-0.6-0.4C91.5,122,91.4,121.9,91.3,121.9z"/>
<path class="st0" d="M84.8,130.9c0.1-0.1,0.2-0.3,0.3-0.4c0.4-0.7,0.7-1.4,0.7-2.2c0-0.9-0.4-1.8-1.1-2.3c-0.1-0.1-0.2-0.2-0.4-0.3
	c-0.6-0.4-1.4-0.5-2.1-0.4c-0.6,0.1-1.1,0.3-1.6,0.4c-0.5,0-1-0.1-1.3-0.5c-0.3-0.5-0.1-1.1,0.2-1.5c0.2-0.3,0.4-0.6,0.7-0.7
	c0.2,0,0.5,0,0.6-0.1c0.2-0.1,0.2-0.4,0.2-0.6c0-0.3-0.2-0.6-0.5-0.7c-0.2-0.1-0.4-0.1-0.6,0c-0.1,0-0.2,0.1-0.3,0.1
	c-0.2,0.1-0.3,0.2-0.5,0.4c-0.1,0.1-0.1,0.1-0.2,0.2c-0.1,0.1-0.2,0.3-0.3,0.4c-0.6,0.9-1,2-0.7,3c0.2,0.9,1,1.6,1.9,1.7
	c0.5,0.1,1,0,1.5-0.1c0.5-0.1,1-0.2,1.5-0.2c0.5,0,1,0.3,1.3,0.7c0.2,0.3,0.3,0.8,0.2,1.2c-0.1,0.4-0.3,0.8-0.6,1.1
	c-0.1,0.2-0.3,0.4-0.5,0.5c-0.1,0.1-0.2,0.1-0.3,0.2c-0.1,0-0.2,0.1-0.4,0.1c-0.1,0-0.3,0.1-0.4,0.3c-0.1,0.1,0,0.3,0,0.5
	c0.1,0.2,0.3,0.4,0.5,0.5c0.2,0.2,0.5,0.3,0.7,0.2c0.2,0,0.3-0.1,0.4-0.3C84.3,131.7,84.6,131.3,84.8,130.9z"/>
<path class="st0" d="M76.4,134.6c0,0-0.1-0.1-0.1-0.2c-1.3-2-2.4-4.3-3.1-6.6c-0.1-0.2-0.2-0.5-0.5-0.6c-0.1,0-0.3,0-0.5,0.1
	c-0.4,0.2-0.7,0.5-0.7,0.9c0,0.3,0.1,0.5,0.3,0.8c1.1,1.8,2,3.6,2.9,5.5c-2.9-1.1-5.7-2.2-8.5-3.5c-0.2-0.1-0.3-0.2-0.5-0.2
	c-0.3,0-0.5,0.3-0.6,0.6c0,0.3,0.1,0.7,0.2,1c0.9,1.7,1.8,3.5,2.6,5.2c0.3,0.5,0.5,1.1,0.7,1.7c0.1,0.3,0.2,0.6,0.4,0.8
	c0.1,0.1,0.2,0.2,0.3,0.2c0.2,0,0.4-0.1,0.6-0.2c0.4-0.2,0.8-0.6,0.7-1c0-0.1-0.1-0.3-0.2-0.4c-1.2-1.7-2.3-3.5-3-5.4
	c2.8,1.2,5.6,2.3,8.5,3.4c0.3,0.1,0.7,0.2,0.9,0c0.3-0.2,0.3-0.7,0.2-1.1C76.8,135.2,76.6,134.9,76.4,134.6z"/>
<path class="st0" d="M60.2,141.3c-0.1,0-0.2,0-0.3,0c-1.3,0.3-2.6,0.4-3.9,0.4c-0.2-1.1-0.2-2.2-0.1-3.2c0,0,0-0.1,0-0.1
	c0,0,0.1,0,0.2,0c0.6,0,1.2,0,1.9,0.1c0.4,0.1,0.9,0.2,1.2-0.1c0.3-0.2,0.3-0.7,0.3-1c0-0.1,0-0.2-0.1-0.3c-0.1-0.2-0.4-0.2-0.7-0.2
	c-0.8,0.1-1.6,0.2-2.4,0.1c-0.1,0-0.2,0-0.2-0.1c-0.1-0.1-0.1-0.2-0.1-0.3c-0.1-0.8-0.1-1.6,0.1-2.4c1-0.1,2-0.1,3,0.1
	c0.4,0.1,0.8,0.2,1.2,0c0.2-0.2,0.4-0.5,0.4-0.8c0-0.2,0-0.4-0.1-0.5c-0.2-0.2-0.5-0.2-0.7-0.2c-1.3,0.1-2.6,0.1-3.9,0
	c-0.3,0-0.7,0-1,0.1c-0.2,0-0.3,0.1-0.4,0.2c0,0,0,0-0.1,0.1c0,0,0,0.1,0,0.1c0,0.1,0,0.2,0,0.3c0,0.2,0,0.3,0,0.5
	c0.3,2.8,0.1,5.6,0,8.4c0,0.2,0,0.6,0.3,0.6c0.1,0,0.2,0,0.3,0c1.6-0.4,3.3-0.1,5-0.1c0.1,0,0.3,0,0.4-0.1c0.2-0.1,0.3-0.4,0.4-0.7
	c0-0.2,0.1-0.3,0-0.5c0-0.2-0.1-0.3-0.3-0.4C60.3,141.3,60.3,141.3,60.2,141.3z"/>
<path class="st0" d="M47.9,133.3c-0.3,0.5-0.6,0.8-1,0.9c-0.4,0.1-1.1,0.1-1.9,0c-0.1,0-0.2,0-0.3-0.1l0.3-0.5
	c0.1-0.1,0.2-0.3,0.3-0.5l0.9-1.5c0.1-0.2,0.2-0.3,0.2-0.4c0-0.1,0.1-0.2,0.2-0.3c0.1-0.2,0.2-0.3,0.2-0.3c0,0,0.1,0,0.1,0l0.3,0.1
	c0.4,0.2,0.7,0.6,1,1C48.3,132.3,48.2,132.7,47.9,133.3z M48.5,130.4c-0.5-0.5-1.2-0.8-1.8-1.1c-0.2-0.1-0.4-0.2-0.5-0.2
	c-0.5,0-0.7,0.6-0.9,0.9c-0.2,0.5-0.5,1-0.8,1.5c-0.5,1-1,1.9-1.6,2.9c-0.1,0.2-0.2,0.3-0.2,0.5c-0.3,0.5-0.6,1.1-1,1.6
	c-0.2,0.2-0.4,0.4-0.6,0.7c-0.2,0.4,0,0.9,0.3,1.1c0.3,0.2,0.9,0.2,1.1-0.1c0.1-0.1,0.2-0.3,0.3-0.5c0.4-0.8,0.8-1.5,1.2-2.3
	c0.9,1.6,1.9,3.3,2.5,5.1c0.1,0.2,0.1,0.3,0.2,0.4c0.3,0.2,0.7,0.1,1,0c0.3-0.2,0.6-0.4,0.5-0.8c0-0.1-0.1-0.2-0.1-0.3
	c-0.8-1.4-1.6-2.8-2.3-4.2c0.9,0.2,1.8,0,2.6-0.5c0.8-0.5,1.3-1.3,1.3-2.2c0-0.8-0.4-1.6-1-2.2C48.7,130.6,48.6,130.5,48.5,130.4z"
	/>
<path class="st0" d="M41.4,127.7c0,0,0.1-0.1,0.1-0.1c0.2-0.1,0.3-0.2,0.4-0.4c0.1-0.2,0-0.4-0.1-0.6c-0.2-0.3-0.5-0.6-0.8-0.6
	c-0.4,0-0.7,0.4-1,0.7c-0.5,0.7-1.2,1.1-1.9,1.6c-1.2,0.8-2.6,1.6-4,2c-0.6,0.1-1.2,0.2-1.7,0c-0.4-0.2-0.7-0.6-0.8-1.1
	c-0.1-0.6,0.1-1.1,0.4-1.6c0.9-1.7,2.1-3.2,3.4-4.6c0.2-0.2,0.5-0.5,0.6-0.8c0.1-0.3,0.1-0.7-0.1-0.9c-0.1-0.1-0.2-0.2-0.4-0.2
	c-0.4-0.1-0.8-0.2-1.2,0c-0.2,0.1-0.2,0.3-0.3,0.5c-0.1,0.2-0.2,0.4-0.3,0.6c-0.4,0.8-1,1.6-1.5,2.3c-0.6,0.8-1.2,1.6-1.7,2.5
	c-0.3,0.5-0.6,1.2-0.5,1.8c0,1.1,0.9,2.1,1.9,2.5c1,0.4,2.2,0.3,3.3,0c1.8-0.5,3.3-1.5,4.8-2.6C40.4,128.4,40.9,128.1,41.4,127.7z"
	/>
<path class="st0" d="M31.5,118.5c0.2-0.2,0.4-0.4,0.4-0.6c0.1-0.4-0.2-0.7-0.6-0.9c-0.3-0.1-0.6-0.2-0.9,0c-0.3,0.1-0.5,0.3-0.6,0.6
	c-0.7,0.8-1.5,1.5-2.2,2.1c-0.8,0.7-1.6,1.3-2.4,1.9c-0.4,0.3-0.8,0.6-1.2,0.9c-0.3,0.2-0.9,0.4-0.9,0.9c0,0.4,0.3,0.9,0.6,1.2
	c0.5,0.4,1,0,1.3-0.5c0.6-0.8,1.4-1.5,2.2-2.2c0.8-0.7,1.7-1.4,2.5-2c0.5-0.4,1-0.8,1.5-1.2C31.4,118.6,31.5,118.5,31.5,118.5z"/>
<path class="st0" d="M23.7,115.5c-0.3,0-0.7-0.2-1-0.3c-0.3-0.1-0.5-0.3-0.7-0.5c-0.1-0.1-0.2-0.2-0.3-0.3c0,0-0.1-0.1-0.1-0.2
	c0,0,0.2-0.1,0.2-0.1c0.6-0.4,1.2-0.7,1.7-1.1c0.6-0.4,1.1-0.8,1.7-1.2c0.1,0,0.2-0.1,0.2-0.1c0,0,0.1,0,0.1,0.1
	c0.2,0.3,0.4,0.5,0.5,0.9c0.2,0.6,0.3,1.4,0,2c-0.1,0.2-0.3,0.3-0.5,0.5c-0.4,0.2-0.8,0.4-1.2,0.4C24,115.5,23.9,115.5,23.7,115.5z
	 M24.3,116.9C24.4,116.9,24.4,116.9,24.3,116.9c0.7,0,1.4-0.1,2-0.5c0.6-0.3,1-0.8,1.3-1.4c0.3-0.8,0.1-1.7-0.2-2.4
	c-0.4-0.9-1-1.8-1.7-2.5c-0.1-0.1-0.2-0.2-0.3-0.2c-0.2,0-0.3,0.1-0.4,0.1c-1.8,1.2-3.6,2.4-5.4,3.6c-0.5,0.4-1.1,0.7-1.7,0.9
	c-0.1,0-0.3,0.1-0.4,0.1c-0.1,0-0.3,0.1-0.4,0.2c-0.1,0.1,0,0.3,0,0.5c0,0.2,0.1,0.4,0.3,0.5c0.1,0.2,0.3,0.3,0.5,0.5
	c0.1,0.1,0.3,0.2,0.5,0.2c0.2,0,0.3-0.1,0.4-0.2c0.4-0.3,0.7-0.6,1.1-0.8c0.2-0.1,0.4-0.3,0.6-0.4c0.2,0,0.4,0.2,0.5,0.3
	C21.7,116.3,23,116.9,24.3,116.9z"/>
<path class="st0" d="M37.7,12.3c0.3,0.2,0.6,0.4,0.9,0.5c0.2,0.1,0.5,0.2,0.6,0.3c0,0-1.6,1.4-1.7,1.5c-0.2,0.2-0.4,0.3-0.6,0.5l0,0
	c0,0-0.3-1.6-0.3-1.7c0-0.3-0.1-0.6-0.2-1c-0.1-0.3-0.2-0.6-0.2-0.9c0.2,0,0.4,0.2,0.5,0.2C37.1,12,37.4,12.1,37.7,12.3z M34.9,10.7
	c0.1,0.7,0.2,1.3,0.3,2c0.5,2.5,0.9,5.1,1,7.6c0,0.2,0,0.5,0.2,0.7c0.2,0.1,0.5,0,0.7,0c0.4-0.2,0.8-0.4,0.9-0.8
	c0.1-0.3-0.1-0.5-0.2-0.8c-0.3-0.7-0.5-1.3-0.7-2c0-0.2-0.1-0.4,0-0.6c0-0.2,0.2-0.3,0.3-0.5c0.9-0.9,1.8-1.7,2.8-2.4
	c0,0,0.1-0.1,0.1-0.1c0.1,0,0.1,0,0.2,0c0.5,0.2,0.9,0.4,1.3,0.7c0.2,0.1,0.4,0.3,0.6,0.5c0.2,0.2,0.3,0.4,0.5,0.5
	c0.1,0.1,0.3,0.1,0.5,0c0.1,0,0.2-0.1,0.2-0.2c0.1-0.2,0.2-0.3,0.3-0.5c0.1-0.1,0.2-0.2,0.2-0.4c0-0.2-0.1-0.4-0.2-0.5
	c-0.2-0.2-0.4-0.3-0.6-0.4c-2-0.9-3.9-1.9-5.8-3c-0.6-0.3-1.1-0.6-1.6-1c-0.2-0.2-0.5-0.4-0.8-0.3C34.7,9.4,34.8,10.2,34.9,10.7
	C34.9,10.7,34.9,10.7,34.9,10.7z"/>
<path class="st0" d="M24.1,21c0,0.1,0.1,0.1,0.1,0.2c0.2,0.2,0.6,0.3,0.8,0.2c0.2-0.1,0.3-0.2,0.4-0.4c0.4-0.5,0.8-1.1,1.2-1.6
	c0,0,1.8,1.5,2,1.6c0.7,0.6,1.3,1.1,1.9,1.7c0.4,0.4,0.7,0.7,1.1,1.1c0.4,0.4,0.7,0.8,1,1.1c0.1,0.1,0.2,0.1,0.3,0.1
	c0.1,0,0.1,0,0.2-0.1c0.4-0.3,0.8-0.6,0.8-1.1c0-0.5-0.5-0.8-0.8-1c-2-1.2-3.5-3.2-5.3-4.8c0.7-0.7,1.4-1.5,2.1-2.2
	c0.1-0.1,0.2-0.2,0.2-0.3c0-0.2-0.1-0.3-0.2-0.5c-0.1-0.2-0.4-0.5-0.6-0.4c-0.2,0-0.3,0.2-0.4,0.3c-1,1.1-2,2.3-3.1,3.4
	c-0.4,0.5-0.9,1-1.3,1.5c-0.1,0.1-0.2,0.2-0.3,0.4c-0.1,0.1-0.2,0.2-0.2,0.3C23.9,20.7,24,20.9,24.1,21z"/>
<path class="st0" d="M21.2,25c0.1,0.1,0.2,0.1,0.3,0.2C23,26,24.3,27,25.7,28c0.8,0.6,1.6,1.2,2.3,1.9c0.1,0.1,0.2,0.3,0.4,0.3
	c0.1,0,0.3,0,0.4-0.1c0.2-0.1,0.4-0.3,0.6-0.5c0.2-0.3,0.4-0.6,0.3-1c-0.1-0.3-0.5-0.4-0.8-0.5c-0.9-0.3-1.7-1-2.5-1.5
	c-1.2-0.9-2.5-1.7-3.6-2.7c-0.2-0.2-0.4-0.4-0.6-0.5c-0.2-0.1-0.5-0.2-0.8-0.1c-0.6,0.2-0.7,1.1-0.3,1.6C21.1,24.9,21.2,25,21.2,25z
	"/>
<path class="st0" d="M18.3,27.1c-0.2,0.1-0.3,0.3-0.4,0.5c-0.2,0.2-0.4,0.5-0.5,0.8c-0.1,0.3-0.1,0.6-0.2,1c-0.1,0.4-0.1,0.8,0,1.2
	c0.1,0.5,0.4,1.1,0.8,1.4c0.4,0.4,1,0.6,1.5,0.5c0.5,0,0.9-0.2,1.3-0.4c0.2-0.1,0.5-0.3,0.7-0.4c0.4-0.2,0.7-0.4,1.1-0.5
	c0.5-0.1,1,0,1.3,0.3c0.4,0.3,0.5,0.8,0.5,1.2c0,0.4-0.1,0.7-0.2,1.1c-0.1,0.3-0.2,0.5-0.4,0.7c-0.2,0.2-0.5,0.2-0.6,0.5
	c-0.1,0.2,0,0.4,0.1,0.5c0.1,0.1,0.3,0.2,0.5,0.3c0.2,0.1,0.4,0.2,0.6,0.1c0.5-0.1,0.7-0.8,0.9-1.2c0.2-0.7,0.4-1.4,0.4-2.1
	c0-1.4-0.8-2.7-2.2-3c-0.7-0.2-1.5-0.1-2.2,0.2c-0.5,0.2-0.9,0.6-1.4,0.9c-0.5,0.2-1.2,0.2-1.5-0.2c-0.3-0.3-0.2-0.8-0.1-1.2
	c0.1-0.3,0.2-0.7,0.5-0.9c0.2-0.1,0.6-0.1,0.6-0.5c0-0.3-0.2-0.5-0.4-0.7C19.1,27.1,18.7,26.9,18.3,27.1L18.3,27.1z"/>
<path class="st0" d="M18.4,27.1C18.4,27.1,18.4,27.1,18.4,27.1L18.4,27.1z"/>
<path class="st0" d="M12.8,38.6l0.1-0.3c0.2-0.4,0.6-0.8,1-1c0.5-0.2,1-0.1,1.5,0.2c0.3,0.2,0.6,0.4,0.8,0.7
	c0.2,0.3,0.3,0.7,0.3,1.1c0,0.4,0,1-0.1,1.4c0,0-1.4-0.7-1.5-0.8c-0.5-0.2-0.9-0.5-1.3-0.7c-0.2-0.1-0.4-0.2-0.6-0.3
	C12.8,38.8,12.7,38.8,12.8,38.6z M11.6,40C11.7,40,11.7,40,11.6,40c1.6,0.8,3.1,1.5,4.7,2.3c0.9,0.4,1.8,0.9,2.6,1.5
	c0.2,0.2,0.4,0.4,0.6,0.5c0.3,0.1,0.7,0.1,0.9-0.2c0.2-0.2,0.2-0.5,0.3-0.7c0-0.1,0-0.2,0-0.3c0-0.1-0.1-0.3-0.3-0.3
	c-0.2-0.1-0.4-0.2-0.6-0.3c-0.3-0.1-0.5-0.2-0.8-0.4c-0.5-0.2-1-0.5-1.5-0.7c0.1,0,0.5-0.2,0.5-0.3c0.2-0.1,0.4-0.2,0.5-0.3
	c0.4-0.2,0.7-0.4,1-0.6c0.7-0.4,1.4-0.9,2.1-1.2c0.4-0.2,0.8-0.2,1.1-0.5c0.3-0.2,0.3-0.5,0.2-0.8c-0.1-0.3-0.3-0.6-0.5-0.7
	c-0.2-0.1-0.4-0.1-0.6,0c-0.2,0.1-0.4,0.3-0.6,0.5c0,0-0.4,0.2-0.4,0.2c-0.2,0.1-0.3,0.2-0.5,0.3c-0.3,0.2-0.6,0.4-1,0.5
	c-0.6,0.4-1.2,0.7-1.8,1c0.1,0,0-0.5,0.1-0.5c0-0.2,0-0.4,0-0.6c-0.1-0.4-0.2-0.7-0.3-1.1c-0.3-0.7-0.9-1.2-1.6-1.5
	c-0.3-0.1-0.6-0.2-0.9-0.2c-0.8,0-1.6,0.4-2.1,1c-0.4,0.4-0.7,0.9-1,1.5c-0.1,0.3-0.2,0.5-0.4,0.8c-0.1,0.3-0.2,0.5,0,0.8
	C11.4,39.8,11.5,39.9,11.6,40z"/>
<path class="st0" d="M7.5,48.8c0.2,0.3,0.5,0.4,0.8,0.5c2.7,0.7,5.3,1.7,7.8,2.8c0.2,0.1,0.5,0.2,0.8,0.1c0.2-0.1,0.3-0.5,0.3-0.7
	c0.2-1.5,1-2.8,1.5-4.2c0.1-0.2,0.1-0.5,0.1-0.7c-0.1-0.3-0.5-0.5-0.8-0.7c-0.1-0.1-0.3-0.1-0.4-0.1c-0.3,0.1-0.4,0.4-0.5,0.7
	c-0.2,1.3-0.5,2.5-1,3.7c-1-0.2-2.1-0.5-3.1-0.9c-0.1,0-0.1-0.1-0.2-0.1c0-0.1,0-0.2,0-0.3c0.2-0.6,0.4-1.1,0.7-1.7
	c0.2-0.4,0.5-0.8,0.3-1.2c-0.1-0.4-0.6-0.6-1-0.7c-0.1,0-0.2,0-0.3,0c-0.1,0-0.1,0.2-0.2,0.3c-0.3,0.9-0.3,1.8-0.8,2.6
	c-0.1,0.1-0.1,0.2-0.3,0.3c-0.1,0-0.2,0-0.3,0c-0.7-0.2-1.3-0.4-1.9-0.8c-0.1,0-0.1-0.1-0.2-0.2c0-0.1,0-0.2,0-0.2
	c0.1-0.9,0.6-1.7,1-2.4c0.1-0.2,0.3-0.5,0.4-0.8c0.1-0.3,0.1-0.6-0.1-0.8C10.3,43.1,10,43,9.7,43c-0.4,0-0.6,0.3-0.7,0.7
	c-0.1,0.4-0.2,0.9-0.3,1.3c-0.3,0.8-0.6,1.7-0.9,2.5c0,0.1-0.1,0.1-0.1,0.2C7.5,48,7.3,48.4,7.5,48.8C7.5,48.7,7.5,48.7,7.5,48.8z"
	/>
<path class="st0" d="M5,59.3c0,0.1,0,0.1,0.1,0.2c0.1,0.2,0.2,0.5,0.4,0.7c0.2,0.1,0.5,0,0.7,0c2.7-0.8,5.5-0.8,8.3-1.1
	c0.2,0,0.4,0,0.6-0.2c0.2-0.1,0.3-0.4,0.3-0.6c0-0.2,0-0.5-0.1-0.7c-0.2-0.4-0.5-0.6-0.9-0.8c-2.4-1.6-4.7-3.3-6.7-5.3
	c-0.2-0.2-0.4-0.4-0.6-0.4c-0.9-0.2-0.9,1.3-0.4,1.8c0.2,0.1,0.4,0.2,0.6,0.3c0.6,0.2,1.1,0.6,1.6,1c1.5,1.1,3,2.2,4.5,3.4
	c-2.4,0.6-5,0.6-7.5,0.9c-0.2,0-0.5,0.1-0.6,0.3C4.9,58.8,5,59.1,5,59.3z"/>
<path class="st0" d="M4.1,65.8C4.1,65.8,4.1,65.8,4.1,65.8c0.3,0.1,0.5,0.1,0.8,0.1c1.8,0,3.7,0.2,5.5,0.4c0,0,0,0,0,0
	c0.9,0.1,1.7,0.3,2.6,0.5c0.2,0,0.4,0.1,0.5,0c0.1,0,0.2-0.1,0.2-0.2c0.2-0.3,0.3-0.7,0.3-1.1c0-0.2-0.1-0.5-0.4-0.6
	c-0.3-0.1-0.6-0.1-0.8,0c-1.2,0.2-2.5,0-3.7-0.2c-1.2-0.1-2.5-0.1-3.7-0.4c-0.3-0.1-0.6-0.2-0.9-0.2c-0.2,0-0.4,0-0.6,0.2
	c-0.2,0.1-0.3,0.3-0.3,0.5C3.6,65.1,3.8,65.6,4.1,65.8z"/>
<path class="st0" d="M12.2,78.1L12.2,78.1L12.2,78.1z M4.7,79.4C4.7,79.4,4.7,79.4,4.7,79.4c2.7,0,5.4-0.1,8.1,0.1
	c0.3,0,0.7,0.1,0.9-0.2c0.1-0.1,0.1-0.3,0.1-0.4c0-0.3,0-0.6-0.2-0.9c-0.2-0.3-0.6-0.4-0.9-0.3c-0.9,0.1-1.7,0.3-2.6,0.3
	c-0.9,0.1-1.8,0.1-2.8,0.1c-0.3,0-0.6,0-0.8,0c2.2-2,4.5-4,6.7-6c0.3-0.3,0.7-0.7,0.5-1.1c-0.1-0.4-0.6-0.5-1-0.5
	c-0.4,0-0.9,0-1.3,0.1c-1.8,0.2-3.7,0.2-5.5,0.1c-0.5,0-1-0.1-1.5-0.1c-0.3,0-0.9-0.2-1.1,0.1c0,0.1-0.1,0.2-0.1,0.3
	c0,0.3,0,0.6,0.2,0.8c0.1,0.2,0.4,0.3,0.7,0.4c0.4,0.1,0.9,0,1.3-0.1C6.3,72,7.2,71.9,8,71.9c0.5,0,0.9,0,1.3,0c0.4,0,0.9-0.1,1.3,0
	c-0.1,0.2-0.3,0.3-0.5,0.4c-0.2,0.1-0.3,0.3-0.5,0.4c-0.3,0.3-0.7,0.6-1,0.9c-0.6,0.6-1.3,1.2-1.9,1.8C6,76.2,5,77.1,4.1,77.8
	c-0.3,0.2-0.6,0.5-0.6,0.9c0,0.3,0.3,0.5,0.6,0.6C4.3,79.4,4.5,79.4,4.7,79.4z"/>
<path class="st0" d="M15.4,87c-0.1-0.6-0.3-1.1-0.7-1.6c-0.7-0.9-1.8-1.4-3-1.7c-2.2-0.6-4.5-0.6-6.8-0.5c-0.2,0-0.5,0-0.6,0.2
	c-0.1,0.2-0.2,0.6-0.1,0.9c0,0.3,0.3,0.6,0.5,0.7c0.2,0.1,0.5,0,0.7-0.1c1.2-0.3,2.5-0.2,3.8-0.1c1.1,0.1,2.3,0.3,3.3,0.7
	c0.4,0.2,0.7,0.4,1,0.7c0.3,0.3,0.5,0.7,0.4,1.1c-0.1,0.7-0.8,1.2-1.4,1.5c-1.7,0.9-3.7,1.3-5.6,1.7c-0.4,0.1-0.9,0.2-1,0.6
	c-0.2,0.4,0.1,0.8,0.4,1.1c0.1,0.1,0.2,0.2,0.4,0.3c0.3,0.1,0.7-0.1,1-0.2c1.7-0.9,3.6-1.2,5.3-2c0.8-0.3,1.6-0.8,2-1.5
	C15.4,88.1,15.5,87.5,15.4,87z"/>
<path class="st0" d="M109.2,84.2c-1.2-0.4-2.4-0.9-3.6-1.4c-1.2-0.5-2.4-1.1-3.5-1.8c-0.2-0.1-0.4-0.2-0.6-0.2
	c-0.8,0-0.6,1.2-0.2,1.5c0.3,0.3,0.8,0.4,1.2,0.5c1.5,0.5,3,1.2,4.5,1.9c-1.6,0.3-3.2,0.6-4.8,0.9c-0.4,0.1-1,0.3-1,0.7
	c0,0.4,0.3,0.6,0.6,0.8c1.5,1,2.9,2.2,4.3,3.4c-2.1-0.2-4.3-0.4-6.4-0.8c-0.3-0.1-0.6-0.1-0.8,0.2c-0.1,0.1-0.1,0.2-0.1,0.3
	c0,0.5,0,1,0.4,1.2c0.2,0.1,0.4,0.1,0.6,0.1c2.7,0,5.4,0.3,8.1,0.8c0.3,0.1,0.7,0.1,1-0.1c0.2-0.2,0.2-0.6,0.1-0.9
	c-0.2-0.3-0.4-0.5-0.7-0.7c-0.6-0.5-1.3-1-1.9-1.4c-1-0.7-1.9-1.4-2.8-2.2c1.8-0.5,3.7-0.8,5.6-1c0.3,0,0.5,0,0.8-0.2
	c0.2-0.1,0.5-0.3,0.5-0.6c0-0.3-0.1-0.5-0.4-0.7C109.8,84.4,109.5,84.3,109.2,84.2C109.2,84.2,109.2,84.2,109.2,84.2z"/>
<path class="st0" d="M109.9,69c-0.1,0-0.2,0.1-0.2,0.1c-0.1,0-0.2,0-0.3,0c-0.4,0.1-0.8,0.1-1.3,0.1c-0.5,0-1.2,0.1-2.2,0.2
	c-1,0.1-1.9,0.2-2.5,0.3c-1,0.2-1.9,1-2,2.1c-0.2,1.2,0.3,2.3,1.1,3.2c0.2,0.2,0.4,0.3,0.6,0.5c0.4,0.4,0.9,0.6,1.4,0.8
	c0.5,0.2,1,0.5,1.5,0.7c0.5,0.2,1.1,0.4,1.6,0.6c0.3,0.1,0.7,0.2,1,0.3c0.4,0.1,0.9,0.2,1.3,0.3c0.1,0,0.3,0,0.5,0.1
	c0.2,0.1,0.3,0.2,0.5,0.2c0.1,0,0.2,0,0.3-0.1c0,0,0.1-0.1,0.1-0.2c0-0.1,0-0.1,0.1-0.2c0.1-0.1,0.1-0.3,0.1-0.5
	c0-0.2,0.1-0.4,0-0.6c-0.1-0.2-0.3-0.3-0.5-0.3c0,0-0.1,0-0.1,0c-0.2,0-0.5,0.1-0.7,0.1c-0.2,0-0.4,0-0.6-0.1
	c-0.9-0.2-1.9-0.4-2.8-0.7c-0.9-0.3-1.7-0.8-2.6-1.2c-0.7-0.4-1.5-0.9-1.5-1.8c0-1.6,1.7-1.7,2.8-1.9c1.2-0.2,2.4-0.2,3.6-0.2
	c0.2,0,1.1,0,1.3,0c0.6,0.2,0.8,0,1-0.2c0.1-0.2,0.1-0.3,0.2-0.5c0-0.2,0-0.4,0-0.6c0-0.2-0.1-0.4-0.2-0.5
	C110.9,68.8,110.3,68.9,109.9,69z"/>
<path class="st0" d="M106.3,59.1l1.7-0.2c0.2,0,0.4-0.1,0.5-0.1c0.1,0,0.2,0,0.3-0.1c0.1,0,0.2,0,0.2,0c0.1,0,0.1,0,0.1,0
	c0,0,0.1,0.1,0.1,0.2l0,0.3c0.1,0.5,0,1-0.2,1.4c-0.2,0.4-0.6,0.6-1.3,0.7c-0.5,0.1-1,0-1.4-0.2c-0.4-0.2-0.8-0.7-1.1-1.5
	c-0.1-0.1-0.1-0.2-0.1-0.3l0.6-0.1C105.8,59.2,106,59.1,106.3,59.1z M102.8,58.2c-0.7,0.1-1.3,0.2-2,0.2c-0.7,0.1-1.1,0.4-0.8,1.2
	c0.1,0.2,0.3,0.4,0.5,0.5c0.2,0,0.4,0,0.6,0c0.9-0.2,1.8-0.3,2.7-0.5c-0.9,1.5-1.3,3.3-2.3,4.8c-0.2,0.3-0.4,0.5-0.3,0.9
	c0,0.3,0.3,0.5,0.6,0.7c0.3,0.1,0.6,0.2,0.8,0c0.2-0.1,0.2-0.3,0.3-0.5c0.5-1.5,1.2-2.9,1.9-4.3c0.4,0.8,1.1,1.4,1.9,1.7
	c0.8,0.3,1.8,0.3,2.5-0.2c0.7-0.5,1.1-1.3,1.2-2.2c0.1-0.8,0-1.7-0.2-2.5c-0.1-0.2-0.1-0.5-0.4-0.7c-0.2-0.1-0.5-0.1-0.8,0
	C107,57.6,104.9,57.9,102.8,58.2z"/>
<path class="st0" d="M102.3,45.5c0.5,0,0.9,0.1,1.3,0.3c1.1,0.5,2,1.4,2.4,2.6c0.2,0.7,0.2,1.6-0.2,2.3c-0.5,1-1.7,1.6-2.9,1.7
	c-1.2,0.1-2.6-0.1-3.4-1.1c-0.7-0.8-0.9-1.9-0.8-2.9c0-1,0.6-1.9,1.5-2.4C100.8,45.6,101.5,45.4,102.3,45.5z M100.3,44.2
	c-0.2,0.1-0.5,0.1-0.7,0.2c-1.4,0.5-2.4,1.6-2.5,3.2c-0.2,1.5,0.2,3.2,1.2,4.3c0.7,0.8,1.8,1.4,2.8,1.7c1.1,0.3,2.2,0.2,3.3-0.1
	c1.2-0.3,2.2-1,2.6-2.2c0.4-1.2,0.5-2.6,0-3.7c-0.4-1-1-1.8-1.9-2.5C103.9,44.2,102,43.8,100.3,44.2z"/>
<path class="st0" d="M94.6,39.7c-0.2,0.1-0.4,0.2-0.6,0.2c-0.2,0-0.3,0-0.5,0.1c-0.1,0.1-0.2,0.2-0.3,0.4c0,0.2,0,0.4,0,0.6
	c0,0.2,0.1,0.4,0.2,0.5c0.1,0.2,0.2,0.3,0.3,0.4c0.1,0.1,0.2,0.1,0.4,0.1c0.3,0,0.6-0.3,0.8-0.5c0.5-0.4,1-0.7,1.6-1l2.5-1.2
	c1-0.6,2.1-0.9,3.2-1.4c0.1-0.1,0.3-0.2,0.3-0.3c0,0,0,0,0,0c0,0,0,0,0-0.1c0-0.2-0.1-0.3-0.1-0.4c0-0.1-0.1-0.1-0.3-0.3
	c-0.1-0.1-0.2-0.2-0.4-0.3c-0.1,0-0.3-0.1-0.4-0.1c-0.4,0-0.9,0.5-1.2,0.7c-0.5,0.3-0.9,0.5-1.4,0.8C97.3,38.4,95.9,39.1,94.6,39.7z
	"/>
<path class="st0" d="M95.3,28.3c0,0,1,1.4,1.1,1.8c0.1,0.4,0.2,0.8,0.1,1.2c-0.1,0.4-0.2,0.8-0.5,1.1c-0.2,0.2-0.4,0.4-0.6,0.6
	c-0.2,0.2-0.4,0.3-0.6,0.4c-0.2,0.1-0.5,0.2-0.8,0.2c-0.2,0-0.5,0.1-0.7,0.1H93c-0.3,0-0.6,0-0.9-0.1c-0.7-0.2-1.2-0.5-1.4-0.6
	c-0.4-0.2-0.7-0.3-0.9-0.6c-0.2-0.2-0.4-0.3-0.5-0.5c0,0,3.1-2.1,3.1-2.1C94.2,28.7,94.9,28.4,95.3,28.3z M89.9,29.7
	c-0.6,0.3-1.2,0.7-1.9,0.9c-0.7,0.3-1.3,0.8-0.6,1.5c1,1,2.3,1.9,3.7,2.4c1.2,0.5,2.5,0.7,3.8,0.4c1-0.3,2-0.9,2.5-1.9
	c0.5-0.9,0.7-2.1,0.3-3.1c-0.2-0.6-0.5-1.1-0.9-1.6c-0.3-0.5-0.6-1.1-0.9-1.6c-0.1-0.2-0.3-0.4-0.6-0.4c-0.2,0-0.4,0.1-0.6,0.2
	C93.1,27.5,91.6,28.7,89.9,29.7z"/>
<path class="st0" d="M80.9,20.9c-0.1,0.2-0.2,0.4-0.3,0.6c-0.5,1-0.2,2,0.6,2.8c0.6,0.6,1.3,0.9,2.1,1c0.8,0.1,1.6,0,2.4-0.1
	c2-0.4,3.9-1.4,5.8-2.3c0.1-0.1,0.2-0.1,0.3-0.3c0.1-0.2,0-0.4-0.1-0.6c-0.1-0.2-0.2-0.4-0.3-0.5c-0.1-0.2-0.4-0.2-0.6-0.2
	c-0.1,0-0.2,0.1-0.3,0.2c-1.8,1.4-4,2.3-6.3,2.6c-0.4,0.1-0.8,0.1-1.2,0c-0.4-0.1-0.8-0.3-1-0.7c-0.2-0.3-0.2-0.7,0-1.1
	c0.1-0.4,0.3-0.7,0.6-1c1.2-1.5,2.6-2.7,4.1-3.9c0.2-0.2,0.5-0.4,0.5-0.7c0-0.3-0.2-0.5-0.4-0.7c-0.3-0.2-0.6-0.5-1-0.3
	c-0.3,0.1-0.5,0.4-0.7,0.7c-0.7,1.1-1.7,1.9-2.6,2.7C81.9,19.6,81.3,20.2,80.9,20.9z"/>
<path class="st0" d="M30.2,90.1l13.5,0l-7-12.9L30.2,90.1z M44.6,90.3c0,0.1,0,0.1-0.2,0.3c-3.4,5.1-12.2,4.9-15-0.1
	c-0.1-0.1-0.2-0.2-0.2-0.3c0,0,0,0,0-0.1h0c0-0.1,0-0.1,0-0.2l7-13.8c-0.6-0.2-1-0.7-1-1.3c0-0.8,0.7-1.4,1.5-1.4
	c0.8,0,1.5,0.6,1.5,1.4c0,0.4-0.1,0.7-0.4,1c-0.2,0.2-0.4,0.3-0.7,0.4L44.6,90c0,0,0,0.1,0,0.1L44.6,90.3z M85.6,53.6
	c-0.1,0-0.2,0-0.3,0l-1-0.2c-1.2-0.3-1.5-0.4-2.7-0.7L80,52.1l-0.1,0c-0.1,0-0.2,0.1-0.3,0.2c0,0.2,0,0.3,0.2,0.4
	c0.7,0.2,1.2,0.4,1.5,0.5l1,0.3c0.2,0.2,0.2,0.5,0.2,0.7c-0.2,0.4-0.9,0.7-1.7,0.7c-0.2,0-0.5,0-0.7-0.1l-0.4-0.1
	c-0.3-0.1-0.7-0.2-1-0.3l-0.7-0.2c-0.6-0.2-1.1-0.4-1.6-0.5l-0.6-0.2l-0.1,0c-0.1,0-0.2,0.1-0.3,0.2c-0.1,0.2,0,0.3,0.2,0.4
	c0.1,0,0.4,0.1,0.6,0.2c0.8,0.3,1.2,0.4,1.6,0.6c0.2,0.1,0.4,0.1,0.5,0.2c0,0.3,0,0.5-0.1,0.6c-0.5,0.6-2.1,0.5-4.2-0.4
	c-0.2-0.1-0.6-0.2-1.1-0.4l-0.6-0.2l-0.1,0c-0.1,0-0.2,0.1-0.3,0.2c-0.1,0.2,0,0.3,0.2,0.4c0.1,0,0.2,0.1,0.3,0.1l1.3,0.5
	c0.1,0.2,0.2,0.4,0.1,0.6c-0.2,0.5-1.3,0.6-2,0.3c-0.4-0.2-1.6-0.7-2.5-1.1c0.2-0.1,0.4-0.2,0.5-0.3c0.2-0.2,0.4-0.5,0.2-1.2
	c0,0,0-0.1,0-0.1c0.8,0,1.4-0.3,1.7-0.6c0.2-0.2,0.4-0.6,0.1-1.1c0-0.1-0.1-0.1-0.1-0.2c1.1,0,2-0.2,2.5-0.6
	c0.3-0.3,0.4-0.7,0.2-1.2c-0.2-0.4-0.7-0.6-1.5-0.9c-0.7-0.3-1.6-0.6-2.5-1.3c-0.1-0.1-0.3-0.1-0.4,0.1c-0.1,0.1-0.1,0.3,0.1,0.4
	c0.9,0.7,1.9,1.1,2.6,1.4c0.5,0.2,1.1,0.4,1.2,0.6c0.1,0.3,0,0.5-0.1,0.6c-0.3,0.3-0.9,0.4-1.8,0.4c-1,0-2.1-0.2-2.8-0.6l-0.1,0h0
	c-0.1,0-0.2,0.1-0.2,0.2c0,0.1,0,0.1,0,0.2c0,0.1,0.1,0.1,0.1,0.2c0.7,0.3,1.2,0.5,1.6,0.6c0.5,0.2,0.7,0.2,0.8,0.5
	c0.1,0.2,0.1,0.4,0,0.5c-0.2,0.3-0.9,0.5-1.7,0.5c-0.6,0-1.2-0.1-1.7-0.3l-0.1,0c-0.1,0-0.2,0.1-0.3,0.2c-0.1,0.2,0,0.3,0.1,0.4
	c0.3,0.2,0.7,0.2,1,0.3c0.5,0.1,0.7,0.2,0.8,0.4c0.1,0.4,0,0.5-0.1,0.5c-0.4,0.3-1.6,0.3-2.6-0.1l-0.1,0c-0.1,0-0.2,0.1-0.3,0.2
	c-0.1,0.2,0,0.3,0.2,0.4c0.4,0.1,0.8,0.2,1.2,0.3c0.2,0.1,0.4,0.3,0.3,0.5c0,0.3-0.4,0.5-0.8,0.5c-0.1,0-0.2,0-0.3,0l-0.1,0
	c-0.2,0-0.5-0.1-1.5-0.4l-0.1,0c-0.1,0-0.2,0.1-0.3,0.2c0,0.1,0,0.1,0,0.2c0,0.1,0.1,0.1,0.2,0.1c0.4,0.1,0.5,0.2,0.7,0.2l0.5,0.2
	c0,0.1,0,0.2,0,0.3c-0.1,0.2-0.5,0.4-1,0.4c-0.5,0-1.2-0.1-1.9-0.4c-0.2-0.1-0.4-0.1-0.6-0.1L62.7,56l0,0c1.4-0.8,2.9-1.6,2-6.2
	c-0.5-2.8,0.1-3.5,0.4-3.7c0.3-0.2,0.7-0.1,1.2,0.2c0.1,0.1,0.3,0,0.4-0.1c0-0.1,0.1-0.2,0-0.2c0-0.1-0.1-0.1-0.1-0.2
	c-0.7-0.4-1.3-0.5-1.8-0.1c-0.8,0.6-1,2-0.6,4.3c0.7,4-0.2,4.7-1.6,5.5l-0.3-1.4l-0.1-0.4c0.4-0.3,0.6-0.9,0.6-1.5
	c0-0.7-0.1-1.4-0.2-2c-0.2-1.3-0.3-2.7-0.2-3.8c0.2-1.9,1.2-3.1,2.7-3.1c0.7,0,1.5,0.2,2.4,0.7c1.8,0.9,3.1,1.7,4.3,2.4
	c3,1.8,5.4,3.3,14.4,5.5c0.7,0.1,1.2,0.5,1.2,0.9C87.3,53,86.6,53.6,85.6,53.6z M86.3,89.8l-7.6-13.7c0.2-0.1,0.4-0.2,0.5-0.3
	c0.3-0.3,0.4-0.6,0.4-1c0-0.8-0.7-1.4-1.5-1.4c-0.8,0-1.5,0.6-1.5,1.4c0,0.7,0.5,1.2,1.1,1.4l-6.9,13.7c0,0.1,0,0.2,0,0.2h0
	c0,0,0,0,0,0.1c0,0.1,0,0.1,0.1,0.2c2.7,5.2,11.8,5.3,15.2,0C86.3,90.2,86.4,90,86.3,89.8z M78.3,77.2l7.2,12.9H71.7L78.3,77.2z
	 M62,73.1c-0.8-0.1-1.8,0.2-2.9,0.6l-0.1,16h-1V69c0,0,0-0.2-0.3-0.2c-0.3,0-0.3,0.2-0.3,0.2l0,20.6h-1.1l0-15.8
	C55.2,73.4,54,73,53,73.1c-1.7-0.2-6.3,1.7-8.2,1.6c-1.5,0-2.9-0.8-4.4-1.2c-1,0-1.4,0.1-1.8,0.6c-0.3-0.7-0.9-1.1-1.7-1.1
	c0,0-0.1,0-0.1,0c0.1-0.5,0.6-0.8,0.6-0.8c1.5-0.9,6.2,1,7.2,0.6c2.6,0.2,7.3-2.7,8.7-2.7c0.9,0,2.1,0.4,3.3,0.8v-2.6
	c-1.6-0.6-2.8-2-2.8-3.7c0-0.6,0.1-1.1,0.4-1.6c0.2,0.1,0.4,0.2,0.6,0.2l0,0.3c0,0.2,0.2,0.6,0.3,0.8c0,0,0,0,0.1,0c0,0,0,0,0,0.1
	c0,1.5,1.3,2.7,3,2.7c1.6,0,3-1.2,3-2.7c0-0.2,0-0.4-0.1-0.6c0.4,0.1,0.8,0,1.2-0.3c0,0,0.1-0.1,0.1-0.2c0.1,0.4,0.2,0.8,0.2,1.2
	c0,1.9-1.4,3.4-3.3,3.9l0,2.2c0.1,0,0.2-0.1,0.3-0.1c0.9-0.3,1.8-0.5,2.5-0.5c1.4,0,6.1,2.8,8.7,2.7c1,0.4,5.6-1.5,7.2-0.6
	c0,0,0.5,0.4,0.6,0.9c-0.1,0-0.1,0-0.2,0c-0.7,0-1.3,0.4-1.7,1c-0.5-0.5-0.9-0.6-1.8-0.5c-1.5,0.4-2.9,1.2-4.4,1.2
	C68.3,74.7,63.7,72.8,62,73.1z M64.8,109.6c-1.5,1.5-3.9,2.4-6.6,2.4c-4.1,0-8.6-2.2-8.8-6.9l0-15.1l17,0l0,15.1
	C66.5,106.9,65.9,108.4,64.8,109.6z M64.3,104.4c0-0.1,0-0.1,0-0.2c0,0,0,0,0,0c0.1,0,0.2,0,0.2,0C64.4,104.2,64.3,104.3,64.3,104.4
	z M63.8,105c-0.2,0.1-0.2,0.3-0.1,0.5c-0.4,0.3-0.5,0.6-0.5,0.7c-0.4,0.3-0.9,0.2-0.9,0.2l-0.2,0l0.2,0.4c-0.2,0.1-0.4,0.1-0.6,0.1
	c-0.5,0-0.7-0.2-0.7-0.2l-0.1,0c-0.2,0-0.3,0.2-0.3,0.3c-1-0.1-1.6-0.6-1.8-0.7c0.1-0.1,0.2-0.2,0.4-0.3c0.2-0.1,0.5-0.2,0.8-0.2
	c0.2,0,0.4-0.1,0.4-0.1c0.1,0,0.2-0.1,0.3-0.1c0.4-0.2,0.8-0.4,1.1-0.4c0,0,1.9-0.1,2.1-0.2c0,0,0.1,0,0.1,0c0,0,0,0,0.1,0
	C63.9,104.9,63.8,105,63.8,105z M59.2,104.9c0.1,0,0.1,0,0.3-0.3c0.5-0.6,1.1-0.9,1.9-0.9h0.1c0.5,0,2,0.5,2,0.5h0
	c0.1,0,0.2,0,0.3,0c0,0,0,0,0,0.1c-0.1,0-0.5,0.2-0.7,0.2c0,0-0.2,0-0.5,0c-0.4,0-1,0-1,0c0,0,0,0,0,0c-0.4,0-1,0.3-1.2,0.4
	c-0.2,0.1-0.8,0.3-0.9,0.3c-0.1,0-0.4,0.1-0.7,0.2L59.2,104.9z M57.8,108.4c-0.1,0.4-0.3,0.8-0.4,1c-0.1-0.2-0.2-0.4-0.2-0.6
	c-0.1-0.3-0.2-0.5-0.3-0.6c0.2-0.2,0.6-1.1,0.6-1.2c0-0.1,0-0.3,0-0.7c0-0.5-0.1-1.2-0.2-2.4c-0.1-0.9,0.3-2.3,0.8-3.2c0,0,0,0,0,0
	c-0.3,0.6-1.3,2.8-0.1,5.3C58,106.2,57.9,107.8,57.8,108.4z M56.5,101.5c0,0-0.1,0.1-0.1,0.2c-0.2,0.2-0.4,0.4-0.5,0.5
	c0.1-0.2,0.2-0.4,0.4-0.7c0.2-0.3,0.5-0.4,0.7-0.4C56.7,101.1,56.6,101.3,56.5,101.5z M55.5,99.9c0-0.3-0.5-0.4-1-0.6l-0.1,0
	c0,0-0.1,0-0.1-0.1c-0.1-0.3,0.1-1.1,0.2-1.5l0.3-0.2c0.2,1.3,1.4,1.6,1.7,1.7c0.2,0.7,0.6,0.9,0.9,1l-0.3,0.1
	c-0.7-0.1-1.1,0.2-1.2,0.3C55.5,100.5,55.5,100.2,55.5,99.9z M53.9,96c-0.1-0.6,0.2-1,0.4-1.1c0,0,0.1,0,0.1,0
	c0.2-0.1,0.5-0.2,0.7-0.4c0.1-0.2,0.4-0.7,0.6-0.8c0.1-0.1,0.2-0.1,0.3-0.1c0.2,0,0.4,0,0.5-0.2c0-0.1,0.1-0.1,0.1-0.2
	c0.1-0.2,0.1-0.2,0.4-0.3h0c0.3,0,0.8,0.2,1.1,0.5c-0.3,0-0.5-0.1-0.8-0.1c-0.1,0-0.2,0-0.3,0c-0.5-0.1-0.8,0.4-0.8,0.4L56.1,94
	c0,0-0.1,0-0.2,0h0l0,0c-1,0.5-1,2.6-1,3c-0.2,0.1-0.5,0.2-0.6,0.3C54.1,97.1,53.9,96.6,53.9,96z M59.3,94.3L59.3,94.3L59.3,94.3
	c0.1,0,0.1,0,0.2,0c0.1,0,0.2,0,0.3,0c0.2,0.1,0.3,0.3,0.3,0.5c0,0,0,0.1,0,0.1c0.1,0.3,0.2,0.4,0.2,0.5c0,0.1,0,0.2,0,0.3
	c-0.1,0-0.4,0-0.5,0.1c0,0-0.2,0.1-0.4,0.2c0-0.3,0-0.9-0.3-1.2c-0.3-0.4-0.7-0.6-1-0.7c0-0.1-0.1-0.1-0.3-0.1c-0.2,0-1.1,0.3-1.6,1
	c0-0.1,0-0.2,0-0.3c0-0.2,0.4-0.8,0.5-0.9c0.1,0,0.3,0,0.4,0C57.8,93.8,58.6,94,59.3,94.3z M59.9,93.6c0.1,0.1,0.2,0.2,0.2,0.3
	c-0.1-0.1-0.3-0.1-0.5-0.1c0,0-0.1,0-0.1,0l-0.4-0.1c0-0.1-0.1-0.3-0.2-0.5C59.1,93.1,59.5,93.1,59.9,93.6z M61.1,94.1
	c0.4,0,0.5,0.9,0.5,1.1c0,0.4,0.1,0.5,0.4,0.5c0.2,0.1,0.3,0.2,0.6,0.4c0.1,0.1,0.1,0.7-0.1,1c-0.1,0.1-0.1,0.3-0.1,0.4
	c0,0.1-0.1,0.3-0.1,0.4l-0.3-0.5l-0.2,0c0.1-0.1,0.2-0.2,0.2-0.4c0-0.1-0.1-0.4-0.2-0.7c0-0.1,0-0.1,0-0.2c0-0.2-0.1-0.6-0.7-0.5
	c0-0.2,0.1-0.4,0-0.5c0,0,0-0.1-0.1-0.1c0,0-0.1-0.1-0.1-0.1c0,0-0.2-0.7-0.3-0.8c0,0,0,0,0,0c0,0,0-0.1-0.1-0.1
	C60.6,94.1,60.7,94.1,61.1,94.1z M61.9,99.6c0,0-0.1,0-0.1,0.1l-0.1,0c-0.3,0.1-0.7,0.3-0.7,0.7c0,0.4-0.2,0.8-0.5,0.9
	c-0.2,0-0.3,0.1-0.4,0.1c-0.1,0-0.2,0.1-0.2,0.1c0-0.2,0-0.4-0.2-0.6c-0.1-0.1-0.4-0.4-0.7-0.5c0.5-0.1,1.2-0.3,1.6-0.7
	c0.4-0.5,0.6-1.3,0.6-1.6l0.2,0.1c0.2,0.3,0.6,1,0.6,1.3C62,99.5,62,99.6,61.9,99.6z M58.5,101c0,0,0-0.2,0-0.3c0,0,0.1,0,0.1,0.1
	c0.1,0,0.1,0.1,0.2,0.1c0.2,0.1,0.4,0.3,0.4,0.5c0,0,0,0.1,0,0.2c0,0.4,0,0.6,0,0.7c0,0,0,0.1,0,0.1C58.5,101.8,58.5,101.2,58.5,101
	z M59.3,97.2c0-0.1,0-0.2,0.1-0.3c0.1-0.2,0.5-0.6,0.7-0.6c0,0,0.1,0,0.2,0c0.2,0,0.4-0.1,0.6-0.1c0.1,0,0.1,0,0.2,0l0.1,0.3
	c0,0.1,0.1,0.2,0.1,0.2c0,0.1,0,0.1,0,0.2c0,0-0.1,0.1-0.2,0.1c0,0-0.1,0-0.5,0C60.2,97.1,59.7,97.2,59.3,97.2z M57.2,97.9
	c-0.2,0.1-0.5,0.4-0.6,0.8c-0.3-0.1-0.8-0.3-1-0.6c-0.2-0.4-0.3-1.7-0.1-2.3c0-0.1,0-0.2,0.1-0.3c0.1-0.3,0.1-0.5,0.2-0.7
	c0,0.2,0,0.5,0,0.7c0,0.2,0.1,0.3,0.2,0.3c0,0,0,0,0,0c0,0,0,0,0,0.1C56.1,96.9,56.5,97.6,57.2,97.9z M58.2,94.6
	c0.3,0.1,0.8,0.4,0.9,1.1c0,0-0.1-0.1-0.2-0.1c-0.1-0.1-0.5-0.3-0.6-0.6C58.2,94.9,58.2,94.8,58.2,94.6z M58.7,96.2l0.1,0.1
	c0.1,0.1,0.1,0.3,0,0.7l0,0.1c-0.1,0.4-0.2,0.5-0.4,0.5c-0.3,0-1.1-0.4-1.3-0.5c-0.2-0.1-0.3-0.7-0.4-1.1c0-0.3,0-0.5,0.2-0.7
	c0.1-0.1,0.5-0.3,0.7-0.5c0,0.3,0.3,0.7,0.4,0.8C58.1,95.8,58.4,96.1,58.7,96.2z M57.5,99.7L57.5,99.7c-0.1,0-0.5-0.6-0.4-1
	c0-0.2,0.5-0.5,0.8-0.6c0.2,0,0.3,0,0.4,0c0.5,0,0.7-0.2,0.8-0.4c0.4-0.1,0.8-0.1,1.1-0.1c0.2,0,0.3,0,0.4,0c0,0.1-0.1,0.3-0.1,0.4
	l0,0c-0.1,0.3-0.2,1.1-0.8,1.3c-0.5,0.2-1,0.4-1.5,0.4C57.9,99.9,57.6,99.7,57.5,99.7z M55.5,105.5c-0.4-0.2-0.7-0.6-0.8-0.7
	c0,0,0,0,0-0.1c-0.1-0.1-0.8-0.4-1.2-0.5c-0.2-0.1-0.3-0.1-0.4-0.2c-0.1-0.1-0.2-0.1-0.3-0.1c-0.1,0-0.2,0-0.2,0.1
	c-0.1,0.1,0,0.3,0.1,0.4c0,0,0,0.1,0.6,0.4c0.4,0.1,0.8,0.3,0.9,0.3c0.1,0.1,0.3,0.2,0.4,0.3c0.2,0.3,1.5,1,1.8,1.2
	c-0.2,0-0.4,0-0.5,0h-0.2c-0.5,0-0.9,0-1.9-0.3c-0.9-0.3-1.5-1.3-1.6-1.6c0,0,0.1-0.1,0.2-0.2c0-0.1,0-0.1,0-0.2
	c-0.2-0.2-0.3-0.7-0.4-1c0.1,0,0.2,0.1,0.4,0.1c0.1,0,0.2,0.1,0.3,0.1c0.4,0.1,0.7,0.2,1.2,0.2h0.1c0.5,0,0.8,0.1,1.1,0.3
	c0.2,0.2,0.4,0.2,0.5,0.2h0c0.1,0.1,0.2,0.2,0.3,0.3c0.1,0.1,0.4,0.6,0.5,1c0,0.1,0.1,0.1,0.2,0.2l0.1,0.5
	C56.3,106,55.9,105.7,55.5,105.5z M63.6,103.7c-0.2-0.1-1.6-0.5-2.3-0.5h-0.1c-0.7,0-1.8,0.6-2.1,1.1l-0.2,0l-0.8,1.1
	c-0.2-0.5-0.5-1.9-0.1-3.5c0.2,0.4,0.8,1.3,2.1,1.3h0.2l-0.1-0.1c0,0-0.3-0.5-0.3-0.6c0-0.1-0.1-0.3-0.1-0.4c0.3,0,0.9-0.1,1.4-0.7
	c0.4-0.5,0.3-0.8,0.3-1c0,0,0,0,0,0c0,0,0.1,0,0.2-0.1c0.5-0.2,0.7-0.4,0.8-0.5c0.1-0.2,0.1-0.5,0-0.8c-0.1-0.2-0.1-0.3-0.1-0.4
	c0.1-0.1,0.2-0.2,0.3-0.3c0.1-0.1,0.4-1.1,0.4-1.3c0,0,0.1-0.9-0.1-1.2c-0.1-0.1-0.5-0.5-0.8-0.6c-0.1-0.3-0.2-1.1-0.5-1.3
	c0,0-0.1-0.1-0.1-0.1c-0.1-0.1-0.3-0.3-0.5-0.3h0c-0.1,0-0.1,0-0.2,0c-0.1,0-0.2,0-0.3,0c-0.2-0.1-0.2-0.2-0.4-0.4
	c-0.2-0.2-0.4-0.5-0.8-0.6c-0.7-0.1-0.8-0.1-1.4,0c-0.2-0.1-0.7-0.4-1.1-0.3c-0.4,0.1-0.7,0.4-0.9,0.6c-0.2,0-0.7,0.1-0.9,0.4
	c-0.1,0.2-0.2,0.3-0.2,0.4c-0.1,0.1-0.1,0.2-0.2,0.2l0,0v0c0,0,0,0.1-0.4,0.2c-0.4,0.1-0.9,0.6-1,1.5c0,1,0.2,1.4,0.3,1.6l0,0
	c0.1,0.1,0.2,0.3,0.3,0.4c-0.1,0.3-0.3,1.3-0.1,1.6c0.2,0.3,0.5,0.4,0.9,0.6c0.3,0.1,0.3,0.1,0.2,0.2c0,0,0,0,0,0.1
	c0,0.1,0.1,0.7,0.7,1c-0.1,0.2-0.3,0.5-0.4,0.7c-0.1,0.3-0.4,0.6-0.7,0.8l-0.2,0.2l0.3,0c0,0,0.8,0.1,1.9-0.6
	c0.1-0.1,0.2-0.2,0.3-0.4c0,0,0,0,0-0.1c-0.2,0.6-0.3,1.7-0.2,3.1c0,0,0,0,0,0c-0.1-0.2-0.4-0.9-0.7-1.2c-0.1-0.2-0.2-0.4-0.4-0.4
	c-0.1,0-0.2,0-0.2,0l-0.2-0.2l0,0c0,0-0.6-0.2-1.6-0.3c-1,0-2.4-0.7-2.6-0.8l-0.2-0.1l0.6,1.8l-0.4-0.2L51,104c0,0.1,1.1,2.5,2.7,3
	c0.7,0.2,1.4,0.2,1.8,0.2c0.2,0,0.4,0,0.5,0c0.3,0,0.6,0,0.7,0c-0.1,0.2-0.3,0.6-0.6,1l0,0.1l0.1,0.1c0,0,0.4,0.3,0.4,0.7
	c0.1,0.8,0.7,1.1,0.7,1.1l0.1,0l0,0c0,0,1-0.8,1-3.6c0.4,0.3,1.2,0.8,2.2,0.8c0.1,0,0.2,0,0.3,0c0,0,0.1,0,0.2-0.1
	c0.1,0,0.3,0,0.5,0c0.7,0,1.2-0.2,1.3-0.5c0.2,0,0.7-0.2,1.1-1l0.3-0.3l0.4-0.7l-0.2,0c0.4-0.5,0.9-1.3,1-1.4l0.3-0.2l-0.3,0
	C65.4,103.5,64.1,103.6,63.6,103.7z M59,120.1l-0.9,2.9l0-10.5c0,0,0,0,0.1,0c0.3,0,0.5,0,0.8,0L59,120.1z M57.5,123l-1-2.9l0-7.7
	c0.3,0,0.7,0.1,1,0.1L57.5,123z M28.7,52.6c0-0.4,0.4-0.7,1.2-0.9c8.9-2.2,11.3-3.7,14.4-5.5c1.1-0.7,2.5-1.5,4.3-2.4
	c0.9-0.5,1.7-0.7,2.4-0.7c1.5,0,2.5,1.2,2.7,3.1c0.1,1.1-0.1,2.5-0.2,3.8l0,0.1c-0.1,0.7-0.2,1.3-0.2,2c0,0.6,0.2,1.2,0.7,1.5
	c0,0.2-0.1,0.5-0.2,0.7c-0.1,0.4-0.2,0.8-0.2,1.2c-1.3-0.8-2.3-1.5-1.6-5.5c0.4-2.3,0.2-3.8-0.6-4.3c-0.5-0.3-1.2-0.3-1.8,0.1
	c-0.1,0-0.1,0.1-0.1,0.2c0,0.1,0,0.2,0,0.2c0.1,0.1,0.3,0.2,0.4,0.1c0.5-0.3,0.9-0.3,1.2-0.2c0.3,0.2,0.9,0.9,0.4,3.7
	c-0.8,4.6,0.6,5.4,2,6.2c0,0,0.1,0,0.1,0.1c0,0.3-0.1,0.7-0.1,1.1c-0.2,0-0.5,0-0.8,0.2c-1.5,0.5-2.7,0.5-3,0
	c-0.1-0.1-0.1-0.2,0-0.3l1.2-0.4c0.1,0,0.1-0.1,0.2-0.1c0-0.1,0-0.1,0-0.2c0-0.1-0.1-0.2-0.3-0.2l-0.1,0c-1,0.3-1.2,0.4-1.5,0.4
	l-0.1,0c-0.7,0.1-1.1-0.1-1.2-0.4c0-0.2,0.1-0.5,0.3-0.5c0,0,0,0,0,0c0.4-0.1,0.8-0.2,1.2-0.3c0.2,0,0.2-0.2,0.2-0.4
	c0-0.1-0.1-0.2-0.3-0.2l-0.1,0c-1,0.4-2.2,0.4-2.6,0.1c0,0-0.2-0.2-0.1-0.6c0.1-0.2,0.3-0.3,0.8-0.4c0.3-0.1,0.6-0.1,1-0.3
	c0.1-0.1,0.2-0.2,0.1-0.4c0-0.1-0.1-0.2-0.3-0.2L48,53c-0.5,0.2-1.1,0.3-1.7,0.3c-0.7,0-1.4-0.2-1.7-0.5c-0.1-0.1-0.1-0.2,0-0.5
	c0.1-0.2,0.3-0.3,0.8-0.5c0.4-0.1,0.9-0.3,1.6-0.6c0.1,0,0.1-0.1,0.1-0.2c0-0.1,0-0.1,0-0.2c0-0.1-0.1-0.2-0.3-0.2l-0.1,0l0,0
	c-0.7,0.4-1.8,0.6-2.8,0.6c-0.8,0-1.5-0.2-1.8-0.4c-0.1-0.1-0.2-0.2-0.1-0.6c0.1-0.2,0.6-0.4,1.2-0.6c0.8-0.3,1.7-0.7,2.6-1.4
	c0.1,0,0.1-0.1,0.1-0.2c0-0.1,0-0.2-0.1-0.2c-0.1-0.1-0.3-0.2-0.4-0.1c-0.9,0.7-1.8,1-2.5,1.3c-0.7,0.3-1.3,0.5-1.5,0.9
	c-0.2,0.5-0.1,0.9,0.2,1.2c0.4,0.4,1.3,0.6,2.5,0.6c0,0-0.1,0.1-0.1,0.2c-0.3,0.5-0.1,0.9,0.1,1.1c0.3,0.4,0.9,0.6,1.7,0.6
	c0,0,0,0.1,0,0.1c-0.2,0.6,0.1,1,0.2,1.2c0.1,0.1,0.3,0.2,0.5,0.3c-0.9,0.4-2.1,0.9-2.5,1.1c-0.7,0.3-1.8,0.2-2-0.3
	c-0.1-0.2,0-0.4,0.1-0.6l1.5-0.6c0.2-0.1,0.2-0.2,0.2-0.4c0-0.1-0.2-0.2-0.3-0.2L43,54.8c-0.4,0.2-0.9,0.3-1,0.4
	c-2.1,0.9-3.8,1-4.2,0.4c-0.2-0.2-0.2-0.4-0.1-0.6c0.2-0.1,0.4-0.1,0.5-0.2c0.4-0.1,0.8-0.3,1.6-0.5c0.3-0.1,0.5-0.2,0.7-0.2
	c0.2-0.1,0.2-0.2,0.2-0.4c0-0.1-0.2-0.2-0.3-0.2l-0.1,0c-0.2,0.1-0.5,0.2-0.7,0.2c-0.5,0.2-1,0.4-1.5,0.5l-0.7,0.2
	c-0.2,0.1-0.6,0.2-0.9,0.2l-0.4,0.1c-1,0.2-2.2-0.1-2.4-0.6c-0.1-0.2,0-0.4,0.2-0.7l1-0.3c0.4-0.1,0.9-0.3,1.6-0.5
	c0.2,0,0.2-0.2,0.2-0.4c0-0.1-0.1-0.2-0.2-0.2l0,0l-1.7,0.5c-1.2,0.4-1.5,0.4-2.7,0.7l-1,0.2c-0.1,0-0.2,0-0.3,0
	C29.4,53.7,28.7,53.1,28.7,52.6z M58.1,38.2c0.2,0,0.4-0.1,0.6-0.2c0.2-0.1,0.4-0.1,0.5-0.2c0,0,0.1,0,0.1,0l0,10.4
	c-0.4-0.1-0.7-0.2-1.1-0.2L58.1,38.2C58.1,38.2,58.1,38.2,58.1,38.2z M57.5,47.8c-0.4,0-0.8,0.1-1.1,0.2l0-10.2
	c0.1,0,0.2,0.1,0.3,0.1c0.3,0.1,0.6,0.2,0.8,0.2c0,0,0,0.1,0,0.1V47.8z M61.6,62.7c0,0.1,0,0.2,0,0.4c-0.3,0.2-0.7,0.1-0.8-0.2
	l0.5-3.9c0-0.2-0.1-0.3-0.3-0.4c-0.2,0-0.3,0.1-0.3,0.3L60,63.9c0,0.2-0.1,0.4-0.2,0.5c0,0-0.2,0.1-0.4,0.1c-0.2,0-0.4-0.1-0.4-0.1
	c0,0-0.1-0.1-0.1-0.1c0,0,0-0.1-0.1-0.4l0.1-4.2c0-0.2-0.1-0.3-0.3-0.3c-0.2,0-0.3,0.1-0.3,0.3l-0.1,4.1c0,0,0,0.1,0,0.1
	c-0.1,0.1-0.1,0.2-0.2,0.3c-0.1,0-0.2,0-0.2,0c-0.4,0-0.6-0.1-0.6-0.1c0,0-0.1-0.1-0.1-0.1c0,0-0.1-0.1-0.1-0.4c0,0,0,0,0,0l0.1-3.8
	c0-0.2-0.1-0.3-0.3-0.3c-0.2,0-0.3,0.1-0.3,0.3l-0.1,3.7c-0.1,0.1-0.2,0.2-0.2,0.2c0,0-0.1,0-0.2,0c-0.2,0-0.3,0-0.3,0
	c0,0-0.1-0.3-0.2-0.4l-0.1-0.6c0-0.4-0.1-0.8-0.1-1.1L55,59.3c0-0.2-0.1-0.3-0.3-0.3c-0.2,0-0.3,0.2-0.3,0.3c0,0.8,0.1,1.5,0.2,2.4
	l0.1,0.8c-0.1,0-0.2-0.1-0.2-0.2c-0.5-1.3-0.5-2.4-0.4-3.8c-0.1-2.2,0.1-3,0.4-4.1c0.2-0.8,0.4-1.8,0.6-3.6c0.2-1.7,1.5-2.4,2.7-2.4
	c1.1,0,2.2,0.5,2.9,1.3c0.4,0.3,0.8,2.4,1.1,3.7l0.9,5c0,1.2-0.6,3.3-0.7,3.5c-0.1,0-0.1,0.1-0.1,0.2C61.6,62.4,61.6,62.6,61.6,62.7
	z M50.6,36.3c0.5-0.3,1.2-0.4,2-0.4c0.5,0,1,0.1,1.5,0.2c0.3,0.1,0.7,0.2,1.1,0.3c1.3,0.4,2.2,0.6,2.5,0.6h0.1
	c0.3,0,1.2-0.2,2.4-0.6c0.4-0.1,0.8-0.2,1.1-0.3c0.4-0.1,1-0.2,1.5-0.2c0.8,0,1.6,0.2,2,0.4c0.4,0.4,0.4,0.9,0.3,1.3
	c-0.1,0.2-0.2,0.5-0.7,0.5c-0.4-0.1-0.7-0.3-1.1-0.6c-0.4-0.3-0.9-0.7-1.5-0.8c-0.7-0.1-1.3,0.1-1.9,0.3c-0.3,0.1-0.5,0.2-0.8,0.3
	c-0.2,0-0.4,0.1-0.5,0.2c-0.2,0.1-0.6,0.2-0.7,0.2l-0.1,0l-0.1,0c-0.1,0-0.5-0.1-0.7-0.2c-0.2-0.1-0.4-0.1-0.5-0.2
	c-0.3-0.1-0.5-0.2-0.8-0.3c-0.6-0.2-1.2-0.4-1.9-0.3c-0.6,0.1-1,0.5-1.5,0.8c-0.4,0.3-0.8,0.6-1.1,0.6H51c-0.4,0-0.6-0.4-0.7-0.5
	C50.2,37.2,50.3,36.7,50.6,36.3z M55.5,29.9l4.6-1.4c0.1,0.4,0.2,0.8,0.2,1.3l-4.8,1.5C55.5,30.8,55.5,30.4,55.5,29.9z M55.8,27.8
	l3.6-1.1c0.2,0.4,0.3,0.8,0.5,1.2l-4.3,1.3C55.6,28.7,55.7,28.2,55.8,27.8z M56.9,25.6l0.4,0.2l0.5,0.1l0.6-0.1l0.3-0.2
	c0.2,0.2,0.3,0.4,0.4,0.5l-3,0.9C56.3,26.5,56.6,26,56.9,25.6z M55.7,33.4c-0.1-0.5-0.1-0.9-0.2-1.4l4.8-1.5c0,0.5,0,1,0,1.5
	L55.7,33.4z M59.6,34.9c-0.1,0.3-0.2,0.6-0.3,0.9V36c-0.7,0.2-1.3,0.3-1.5,0.3l-0.1,0l-0.1,0c-0.2,0-0.7-0.1-1.3-0.3v-0.1L59.6,34.9
	z M56.2,35.3c-0.1-0.4-0.3-0.8-0.4-1.2l4.3-1.4c-0.1,0.5-0.2,1-0.3,1.5L56.2,35.3z M56.8,23.1c0.3-0.2,0.6-0.4,1-0.4
	c0.8,0,1.4,0.6,1.4,1.3c0,0.3-0.1,0.7-0.4,0.9c-0.3,0.2-0.6,0.4-1,0.4v0.4v-0.4c-0.8,0-1.4-0.6-1.4-1.3
	C56.4,23.7,56.6,23.4,56.8,23.1z M92.6,51.1C88.6,38.9,74,15,57.1,14C40,15,25.5,40.2,21.7,51.3c-5.5,16.3-4.3,30.3,0.8,43.7
	c8.7,22.3,26.2,33.7,34.3,34.2c9.4-0.1,26.4-12,35.2-34.2C96.7,81.3,97.9,67.6,92.6,51.1z"/>
</svg>
